<svg width="611" height="658" viewBox="0 0 611 658" fill="none" xmlns="http://www.w3.org/2000/svg">
<circle cx="339.315" cy="320.643" r="173.56" stroke="#A2A2A2" stroke-width="3.12721" stroke-miterlimit="1.35678" stroke-dasharray="20.85 20.85"/>
<circle cx="339.319" cy="320.643" r="260.079" stroke="#A2A2A2" stroke-width="3.12721" stroke-miterlimit="1.35678" stroke-dasharray="20.85 20.85"/>
<g filter="url(#filter0_d_366_20675)">
<rect x="130.17" y="86.7383" width="65.3569" height="65.3569" rx="32.6784" fill="white" shape-rendering="crispEdges"/>
<path d="M162.849 106.75C156.6 106.75 151.516 111.834 151.516 118.083C151.516 124.727 157.688 128.805 161.772 131.502L162.478 131.971C162.59 132.046 162.72 132.083 162.848 132.083C162.976 132.083 163.105 132.046 163.217 131.971L163.924 131.502C168.008 128.805 174.18 124.727 174.18 118.083C174.182 111.834 169.098 106.75 162.849 106.75ZM162.849 121.417C161.008 121.417 159.516 119.925 159.516 118.083C159.516 116.242 161.008 114.75 162.849 114.75C164.69 114.75 166.182 116.242 166.182 118.083C166.182 119.925 164.69 121.417 162.849 121.417Z" fill="#E6723F"/>
</g>
<g filter="url(#filter1_d_366_20675)">
<rect x="96.3398" y="168.774" width="133.018" height="40.6784" rx="8.33922" fill="white" shape-rendering="crispEdges"/>
<path d="M113.633 196.113L109.598 181.568H111.907L114.741 192.832H114.875L117.823 181.568H120.11L123.057 192.839H123.192L126.019 181.568H128.334L124.293 196.113H122.084L119.023 185.218H118.91L115.848 196.113H113.633ZM132.265 196.355C131.574 196.355 130.949 196.227 130.39 195.971C129.832 195.711 129.389 195.334 129.062 194.842C128.74 194.35 128.579 193.746 128.579 193.031C128.579 192.415 128.698 191.909 128.934 191.511C129.171 191.113 129.491 190.798 129.893 190.566C130.296 190.334 130.745 190.159 131.243 190.041C131.74 189.922 132.246 189.833 132.763 189.771C133.416 189.695 133.946 189.634 134.353 189.586C134.761 189.534 135.057 189.451 135.241 189.338C135.426 189.224 135.518 189.039 135.518 188.784V188.734C135.518 188.114 135.343 187.633 134.993 187.292C134.647 186.951 134.131 186.781 133.444 186.781C132.729 186.781 132.166 186.94 131.754 187.257C131.347 187.569 131.065 187.917 130.909 188.301L128.913 187.846C129.15 187.183 129.495 186.648 129.95 186.241C130.409 185.829 130.937 185.531 131.534 185.346C132.13 185.157 132.758 185.062 133.416 185.062C133.852 185.062 134.313 185.114 134.801 185.218C135.293 185.318 135.753 185.502 136.179 185.772C136.61 186.042 136.962 186.428 137.237 186.93C137.512 187.427 137.649 188.074 137.649 188.869V196.113H135.575V194.622H135.49C135.352 194.896 135.147 195.166 134.872 195.431C134.597 195.697 134.245 195.917 133.814 196.092C133.383 196.267 132.867 196.355 132.265 196.355ZM132.727 194.65C133.314 194.65 133.816 194.534 134.233 194.302C134.654 194.07 134.974 193.767 135.191 193.393C135.414 193.014 135.525 192.609 135.525 192.179V190.772C135.45 190.848 135.303 190.919 135.085 190.985C134.872 191.047 134.628 191.101 134.353 191.149C134.079 191.191 133.811 191.232 133.551 191.27C133.29 191.303 133.073 191.331 132.897 191.355C132.486 191.407 132.109 191.494 131.768 191.618C131.432 191.741 131.162 191.918 130.959 192.15C130.76 192.377 130.66 192.681 130.66 193.059C130.66 193.585 130.854 193.983 131.243 194.252C131.631 194.518 132.126 194.65 132.727 194.65ZM140.477 196.113V185.204H142.53V186.937H142.644C142.842 186.35 143.193 185.888 143.695 185.552C144.201 185.211 144.774 185.041 145.413 185.041C145.546 185.041 145.702 185.046 145.882 185.055C146.067 185.065 146.211 185.076 146.315 185.091V187.122C146.23 187.098 146.079 187.072 145.861 187.044C145.643 187.011 145.425 186.994 145.207 186.994C144.706 186.994 144.258 187.1 143.865 187.314C143.477 187.522 143.169 187.813 142.942 188.187C142.715 188.556 142.601 188.978 142.601 189.451V196.113H140.477ZM152.464 196.333C151.389 196.333 150.464 196.104 149.687 195.645C148.915 195.181 148.319 194.529 147.897 193.691C147.481 192.849 147.272 191.861 147.272 190.73C147.272 189.612 147.481 188.627 147.897 187.775C148.319 186.923 148.906 186.258 149.659 185.779C150.416 185.301 151.302 185.062 152.315 185.062C152.931 185.062 153.527 185.164 154.105 185.368C154.682 185.571 155.201 185.891 155.66 186.326C156.12 186.762 156.482 187.328 156.747 188.024C157.012 188.715 157.145 189.556 157.145 190.545V191.298H148.473V189.707H155.064C155.064 189.148 154.95 188.654 154.723 188.223C154.495 187.787 154.176 187.444 153.764 187.193C153.357 186.942 152.879 186.816 152.329 186.816C151.733 186.816 151.212 186.963 150.767 187.257C150.326 187.546 149.986 187.924 149.744 188.393C149.507 188.857 149.389 189.361 149.389 189.906V191.149C149.389 191.878 149.517 192.498 149.772 193.01C150.033 193.521 150.395 193.912 150.859 194.181C151.323 194.447 151.865 194.579 152.486 194.579C152.888 194.579 153.255 194.522 153.586 194.409C153.918 194.29 154.204 194.115 154.446 193.883C154.687 193.651 154.872 193.365 155 193.024L157.01 193.386C156.849 193.978 156.56 194.496 156.143 194.941C155.731 195.382 155.213 195.725 154.588 195.971C153.968 196.213 153.26 196.333 152.464 196.333ZM161.624 189.636V196.113H159.501V181.568H161.596V186.98H161.731C161.987 186.393 162.377 185.926 162.903 185.581C163.428 185.235 164.115 185.062 164.962 185.062C165.711 185.062 166.364 185.216 166.923 185.524C167.486 185.832 167.922 186.291 168.229 186.902C168.542 187.508 168.698 188.265 168.698 189.174V196.113H166.575V189.43C166.575 188.63 166.369 188.01 165.957 187.569C165.545 187.124 164.972 186.902 164.238 186.902C163.736 186.902 163.286 187.008 162.889 187.221C162.496 187.434 162.185 187.747 161.958 188.159C161.736 188.566 161.624 189.058 161.624 189.636ZM176.127 196.333C175.104 196.333 174.212 196.099 173.45 195.63C172.687 195.162 172.095 194.506 171.674 193.663C171.253 192.82 171.042 191.835 171.042 190.708C171.042 189.577 171.253 188.587 171.674 187.74C172.095 186.892 172.687 186.234 173.45 185.765C174.212 185.297 175.104 185.062 176.127 185.062C177.15 185.062 178.042 185.297 178.805 185.765C179.567 186.234 180.159 186.892 180.58 187.74C181.002 188.587 181.212 189.577 181.212 190.708C181.212 191.835 181.002 192.82 180.58 193.663C180.159 194.506 179.567 195.162 178.805 195.63C178.042 196.099 177.15 196.333 176.127 196.333ZM176.134 194.551C176.797 194.551 177.346 194.376 177.782 194.025C178.218 193.675 178.54 193.208 178.748 192.626C178.961 192.044 179.068 191.402 179.068 190.701C179.068 190.005 178.961 189.366 178.748 188.784C178.54 188.197 178.218 187.725 177.782 187.37C177.346 187.015 176.797 186.838 176.134 186.838C175.467 186.838 174.913 187.015 174.472 187.37C174.037 187.725 173.712 188.197 173.499 188.784C173.291 189.366 173.187 190.005 173.187 190.701C173.187 191.402 173.291 192.044 173.499 192.626C173.712 193.208 174.037 193.675 174.472 194.025C174.913 194.376 175.467 194.551 176.134 194.551ZM190.493 191.589V185.204H192.624V196.113H190.536V194.224H190.422C190.171 194.806 189.769 195.292 189.215 195.68C188.666 196.064 187.982 196.255 187.162 196.255C186.462 196.255 185.841 196.101 185.302 195.794C184.767 195.481 184.345 195.02 184.037 194.409C183.734 193.798 183.583 193.043 183.583 192.143V185.204H185.706V191.887C185.706 192.631 185.912 193.223 186.324 193.663C186.736 194.103 187.271 194.324 187.929 194.324C188.327 194.324 188.723 194.224 189.116 194.025C189.513 193.826 189.842 193.526 190.103 193.123C190.368 192.721 190.498 192.209 190.493 191.589ZM203.652 187.868L201.727 188.208C201.647 187.962 201.519 187.728 201.344 187.505C201.173 187.283 200.941 187.1 200.648 186.958C200.354 186.816 199.987 186.745 199.547 186.745C198.946 186.745 198.444 186.88 198.041 187.15C197.639 187.415 197.438 187.759 197.438 188.18C197.438 188.545 197.573 188.838 197.842 189.061C198.112 189.283 198.548 189.466 199.149 189.608L200.882 190.005C201.886 190.237 202.634 190.595 203.127 191.078C203.619 191.561 203.865 192.188 203.865 192.96C203.865 193.613 203.676 194.196 203.297 194.707C202.923 195.214 202.4 195.611 201.727 195.9C201.06 196.189 200.286 196.333 199.405 196.333C198.183 196.333 197.187 196.073 196.415 195.552C195.643 195.027 195.17 194.281 194.994 193.315L197.047 193.002C197.175 193.538 197.438 193.942 197.835 194.217C198.233 194.487 198.752 194.622 199.391 194.622C200.087 194.622 200.643 194.477 201.06 194.189C201.476 193.895 201.685 193.538 201.685 193.116C201.685 192.775 201.557 192.489 201.301 192.257C201.05 192.025 200.664 191.85 200.144 191.731L198.297 191.326C197.279 191.094 196.526 190.725 196.038 190.218C195.555 189.712 195.314 189.07 195.314 188.294C195.314 187.65 195.494 187.086 195.854 186.603C196.214 186.12 196.711 185.744 197.345 185.474C197.98 185.199 198.707 185.062 199.526 185.062C200.705 185.062 201.633 185.318 202.31 185.829C202.987 186.336 203.434 187.015 203.652 187.868ZM210.902 196.333C209.827 196.333 208.901 196.104 208.125 195.645C207.353 195.181 206.756 194.529 206.335 193.691C205.918 192.849 205.71 191.861 205.71 190.73C205.71 189.612 205.918 188.627 206.335 187.775C206.756 186.923 207.343 186.258 208.096 185.779C208.854 185.301 209.739 185.062 210.753 185.062C211.368 185.062 211.965 185.164 212.542 185.368C213.12 185.571 213.638 185.891 214.098 186.326C214.557 186.762 214.919 187.328 215.184 188.024C215.45 188.715 215.582 189.556 215.582 190.545V191.298H206.91V189.707H213.501C213.501 189.148 213.388 188.654 213.16 188.223C212.933 187.787 212.613 187.444 212.201 187.193C211.794 186.942 211.316 186.816 210.767 186.816C210.17 186.816 209.649 186.963 209.204 187.257C208.764 187.546 208.423 187.924 208.182 188.393C207.945 188.857 207.826 189.361 207.826 189.906V191.149C207.826 191.878 207.954 192.498 208.21 193.01C208.47 193.521 208.833 193.912 209.297 194.181C209.761 194.447 210.303 194.579 210.923 194.579C211.325 194.579 211.692 194.522 212.024 194.409C212.355 194.29 212.642 194.115 212.883 193.883C213.125 193.651 213.309 193.365 213.437 193.024L215.447 193.386C215.286 193.978 214.997 194.496 214.581 194.941C214.169 195.382 213.65 195.725 213.025 195.971C212.405 196.213 211.697 196.333 210.902 196.333Z" fill="black"/>
</g>
<g filter="url(#filter2_d_366_20675)">
<rect x="311.329" y="17.6431" width="65.3569" height="65.3569" rx="32.6784" fill="white" shape-rendering="crispEdges"/>
<path d="M344.008 37.6548C337.759 37.6548 332.675 42.7388 332.675 48.9881C332.675 55.6321 338.847 59.7094 342.931 62.4067L343.637 62.8761C343.749 62.9508 343.879 62.9881 344.007 62.9881C344.135 62.9881 344.264 62.9508 344.376 62.8761L345.083 62.4067C349.167 59.7094 355.339 55.6321 355.339 48.9881C355.341 42.7388 350.257 37.6548 344.008 37.6548ZM344.008 52.3215C342.167 52.3215 340.675 50.8295 340.675 48.9881C340.675 47.1468 342.167 45.6548 344.008 45.6548C345.849 45.6548 347.341 47.1468 347.341 48.9881C347.341 50.8295 345.849 52.3215 344.008 52.3215Z" fill="#A22C91"/>
</g>
<g filter="url(#filter3_d_366_20675)">
<rect x="269.999" y="99.6782" width="148.018" height="40.6784" rx="8.33922" fill="white" shape-rendering="crispEdges"/>
<path d="M297.157 119.745C297.157 121.298 296.873 122.633 296.305 123.751C295.736 124.863 294.957 125.72 293.968 126.322C292.983 126.918 291.863 127.216 290.608 127.216C289.349 127.216 288.224 126.918 287.235 126.322C286.25 125.72 285.474 124.861 284.905 123.743C284.337 122.626 284.053 121.293 284.053 119.745C284.053 118.192 284.337 116.859 284.905 115.746C285.474 114.629 286.25 113.772 287.235 113.175C288.224 112.574 289.349 112.273 290.608 112.273C291.863 112.273 292.983 112.574 293.968 113.175C294.957 113.772 295.736 114.629 296.305 115.746C296.873 116.859 297.157 118.192 297.157 119.745ZM294.983 119.745C294.983 118.561 294.792 117.564 294.408 116.755C294.029 115.94 293.509 115.325 292.846 114.908C292.188 114.487 291.442 114.276 290.608 114.276C289.77 114.276 289.022 114.487 288.364 114.908C287.706 115.325 287.185 115.94 286.802 116.755C286.423 117.564 286.233 118.561 286.233 119.745C286.233 120.929 286.423 121.928 286.802 122.742C287.185 123.552 287.706 124.167 288.364 124.589C289.022 125.005 289.77 125.214 290.608 125.214C291.442 125.214 292.188 125.005 292.846 124.589C293.509 124.167 294.029 123.552 294.408 122.742C294.792 121.928 294.983 120.929 294.983 119.745ZM299.722 127.018V116.108H301.775V117.841H301.889C302.088 117.254 302.438 116.793 302.94 116.456C303.446 116.116 304.019 115.945 304.659 115.945C304.791 115.945 304.947 115.95 305.127 115.959C305.312 115.969 305.456 115.981 305.561 115.995V118.026C305.475 118.002 305.324 117.976 305.106 117.948C304.888 117.915 304.67 117.898 304.453 117.898C303.951 117.898 303.503 118.005 303.11 118.218C302.722 118.426 302.414 118.717 302.187 119.091C301.96 119.461 301.846 119.882 301.846 120.356V127.018H299.722ZM311.581 131.336C310.715 131.336 309.969 131.222 309.344 130.995C308.724 130.768 308.217 130.467 307.824 130.093C307.431 129.719 307.138 129.309 306.944 128.864L308.769 128.111C308.897 128.32 309.067 128.54 309.28 128.772C309.498 129.009 309.792 129.21 310.161 129.376C310.535 129.541 311.016 129.624 311.603 129.624C312.408 129.624 313.073 129.428 313.599 129.035C314.124 128.646 314.387 128.026 314.387 127.174V125.029H314.252C314.124 125.261 313.939 125.519 313.698 125.803C313.461 126.087 313.135 126.333 312.718 126.542C312.301 126.75 311.759 126.854 311.091 126.854C310.23 126.854 309.453 126.653 308.762 126.251C308.075 125.843 307.531 125.244 307.128 124.454C306.731 123.658 306.532 122.68 306.532 121.52C306.532 120.36 306.728 119.366 307.121 118.537C307.519 117.709 308.064 117.074 308.755 116.634C309.446 116.189 310.23 115.966 311.106 115.966C311.783 115.966 312.33 116.08 312.746 116.307C313.163 116.53 313.487 116.79 313.719 117.089C313.956 117.387 314.138 117.65 314.266 117.877H314.422V116.108H316.503V127.259C316.503 128.197 316.286 128.966 315.85 129.567C315.414 130.169 314.825 130.614 314.081 130.903C313.343 131.191 312.51 131.336 311.581 131.336ZM311.56 125.093C312.171 125.093 312.687 124.951 313.108 124.667C313.535 124.378 313.857 123.966 314.074 123.431C314.297 122.891 314.408 122.245 314.408 121.492C314.408 120.758 314.299 120.112 314.081 119.553C313.864 118.994 313.544 118.559 313.123 118.246C312.701 117.929 312.18 117.77 311.56 117.77C310.921 117.77 310.388 117.936 309.962 118.268C309.536 118.594 309.214 119.039 308.996 119.603C308.783 120.166 308.677 120.796 308.677 121.492C308.677 122.207 308.786 122.834 309.003 123.374C309.221 123.914 309.543 124.335 309.969 124.638C310.4 124.941 310.93 125.093 311.56 125.093ZM322.526 127.259C321.835 127.259 321.21 127.131 320.651 126.876C320.092 126.615 319.65 126.239 319.323 125.746C319.001 125.254 318.84 124.65 318.84 123.935C318.84 123.32 318.958 122.813 319.195 122.415C319.432 122.018 319.751 121.703 320.154 121.471C320.556 121.239 321.006 121.064 321.503 120.945C322.001 120.827 322.507 120.737 323.023 120.675C323.677 120.599 324.207 120.538 324.614 120.491C325.021 120.439 325.317 120.356 325.502 120.242C325.687 120.128 325.779 119.944 325.779 119.688V119.638C325.779 119.018 325.604 118.537 325.253 118.197C324.908 117.856 324.392 117.685 323.705 117.685C322.99 117.685 322.427 117.844 322.015 118.161C321.608 118.474 321.326 118.822 321.17 119.205L319.174 118.751C319.411 118.088 319.756 117.553 320.211 117.145C320.67 116.733 321.198 116.435 321.795 116.251C322.391 116.061 323.019 115.966 323.677 115.966C324.112 115.966 324.574 116.019 325.062 116.123C325.554 116.222 326.013 116.407 326.439 116.677C326.87 116.947 327.223 117.332 327.498 117.834C327.772 118.331 327.91 118.978 327.91 119.773V127.018H325.836V125.526H325.751C325.613 125.801 325.407 126.071 325.133 126.336C324.858 126.601 324.505 126.821 324.074 126.996C323.644 127.171 323.127 127.259 322.526 127.259ZM322.988 125.555C323.575 125.555 324.077 125.439 324.493 125.206C324.915 124.974 325.234 124.671 325.452 124.297C325.675 123.919 325.786 123.514 325.786 123.083V121.677C325.71 121.752 325.564 121.823 325.346 121.89C325.133 121.951 324.889 122.006 324.614 122.053C324.34 122.096 324.072 122.136 323.812 122.174C323.551 122.207 323.333 122.235 323.158 122.259C322.746 122.311 322.37 122.399 322.029 122.522C321.693 122.645 321.423 122.823 321.219 123.055C321.02 123.282 320.921 123.585 320.921 123.964C320.921 124.489 321.115 124.887 321.503 125.157C321.892 125.422 322.386 125.555 322.988 125.555ZM332.862 120.54V127.018H330.738V116.108H332.776V117.884H332.911C333.162 117.306 333.555 116.842 334.09 116.492C334.63 116.142 335.31 115.966 336.129 115.966C336.872 115.966 337.523 116.123 338.082 116.435C338.641 116.743 339.074 117.202 339.382 117.813C339.689 118.424 339.843 119.179 339.843 120.079V127.018H337.72V120.334C337.72 119.544 337.514 118.926 337.102 118.481C336.69 118.031 336.124 117.806 335.404 117.806C334.912 117.806 334.474 117.912 334.09 118.126C333.712 118.339 333.411 118.651 333.188 119.063C332.971 119.47 332.862 119.963 332.862 120.54ZM342.691 127.018V116.108H344.815V127.018H342.691ZM343.764 114.425C343.394 114.425 343.077 114.302 342.812 114.056C342.552 113.805 342.421 113.507 342.421 113.161C342.421 112.811 342.552 112.512 342.812 112.266C343.077 112.015 343.394 111.89 343.764 111.89C344.133 111.89 344.448 112.015 344.708 112.266C344.973 112.512 345.106 112.811 345.106 113.161C345.106 113.507 344.973 113.805 344.708 114.056C344.448 114.302 344.133 114.425 343.764 114.425ZM347.444 127.018V125.562L353.354 118.055V117.955H347.636V116.108H356.003V117.657L350.321 125.072V125.171H356.202V127.018H347.444ZM361.882 127.259C361.19 127.259 360.565 127.131 360.007 126.876C359.448 126.615 359.005 126.239 358.678 125.746C358.356 125.254 358.195 124.65 358.195 123.935C358.195 123.32 358.314 122.813 358.551 122.415C358.787 122.018 359.107 121.703 359.509 121.471C359.912 121.239 360.362 121.064 360.859 120.945C361.356 120.827 361.863 120.737 362.379 120.675C363.032 120.599 363.562 120.538 363.97 120.491C364.377 120.439 364.673 120.356 364.857 120.242C365.042 120.128 365.134 119.944 365.134 119.688V119.638C365.134 119.018 364.959 118.537 364.609 118.197C364.263 117.856 363.747 117.685 363.061 117.685C362.346 117.685 361.782 117.844 361.37 118.161C360.963 118.474 360.681 118.822 360.525 119.205L358.529 118.751C358.766 118.088 359.112 117.553 359.566 117.145C360.026 116.733 360.553 116.435 361.15 116.251C361.747 116.061 362.374 115.966 363.032 115.966C363.468 115.966 363.929 116.019 364.417 116.123C364.91 116.222 365.369 116.407 365.795 116.677C366.226 116.947 366.579 117.332 366.853 117.834C367.128 118.331 367.265 118.978 367.265 119.773V127.018H365.191V125.526H365.106C364.969 125.801 364.763 126.071 364.488 126.336C364.213 126.601 363.861 126.821 363.43 126.996C362.999 127.171 362.483 127.259 361.882 127.259ZM362.343 125.555C362.93 125.555 363.432 125.439 363.849 125.206C364.27 124.974 364.59 124.671 364.808 124.297C365.03 123.919 365.142 123.514 365.142 123.083V121.677C365.066 121.752 364.919 121.823 364.701 121.89C364.488 121.951 364.244 122.006 363.97 122.053C363.695 122.096 363.427 122.136 363.167 122.174C362.907 122.207 362.689 122.235 362.514 122.259C362.102 122.311 361.725 122.399 361.384 122.522C361.048 122.645 360.778 122.823 360.575 123.055C360.376 123.282 360.276 123.585 360.276 123.964C360.276 124.489 360.471 124.887 360.859 125.157C361.247 125.422 361.742 125.555 362.343 125.555ZM375.186 116.108V117.813H369.227V116.108H375.186ZM370.825 113.495H372.949V123.814C372.949 124.226 373.01 124.537 373.133 124.745C373.256 124.948 373.415 125.088 373.609 125.164C373.808 125.235 374.023 125.27 374.256 125.27C374.426 125.27 374.575 125.259 374.703 125.235C374.831 125.211 374.93 125.192 375.001 125.178L375.385 126.932C375.262 126.98 375.086 127.027 374.859 127.074C374.632 127.126 374.348 127.155 374.007 127.16C373.448 127.169 372.927 127.07 372.444 126.861C371.961 126.653 371.571 126.331 371.273 125.895C370.974 125.46 370.825 124.913 370.825 124.255V113.495ZM377.535 127.018V116.108H379.659V127.018H377.535ZM378.607 114.425C378.238 114.425 377.921 114.302 377.656 114.056C377.395 113.805 377.265 113.507 377.265 113.161C377.265 112.811 377.395 112.512 377.656 112.266C377.921 112.015 378.238 111.89 378.607 111.89C378.977 111.89 379.292 112.015 379.552 112.266C379.817 112.512 379.95 112.811 379.95 113.161C379.95 113.507 379.817 113.805 379.552 114.056C379.292 114.302 378.977 114.425 378.607 114.425ZM387.111 127.238C386.088 127.238 385.195 127.003 384.433 126.535C383.671 126.066 383.079 125.41 382.657 124.567C382.236 123.724 382.025 122.74 382.025 121.613C382.025 120.481 382.236 119.492 382.657 118.644C383.079 117.796 383.671 117.138 384.433 116.67C385.195 116.201 386.088 115.966 387.111 115.966C388.133 115.966 389.026 116.201 389.788 116.67C390.55 117.138 391.142 117.796 391.564 118.644C391.985 119.492 392.196 120.481 392.196 121.613C392.196 122.74 391.985 123.724 391.564 124.567C391.142 125.41 390.55 126.066 389.788 126.535C389.026 127.003 388.133 127.238 387.111 127.238ZM387.118 125.455C387.781 125.455 388.33 125.28 388.765 124.93C389.201 124.579 389.523 124.113 389.731 123.53C389.944 122.948 390.051 122.306 390.051 121.606C390.051 120.91 389.944 120.27 389.731 119.688C389.523 119.101 389.201 118.63 388.765 118.275C388.33 117.92 387.781 117.742 387.118 117.742C386.45 117.742 385.896 117.92 385.456 118.275C385.02 118.63 384.696 119.101 384.483 119.688C384.274 120.27 384.17 120.91 384.17 121.606C384.17 122.306 384.274 122.948 384.483 123.53C384.696 124.113 385.02 124.579 385.456 124.93C385.896 125.28 386.45 125.455 387.118 125.455ZM396.69 120.54V127.018H394.566V116.108H396.605V117.884H396.74C396.99 117.306 397.383 116.842 397.919 116.492C398.458 116.142 399.138 115.966 399.957 115.966C400.7 115.966 401.351 116.123 401.91 116.435C402.469 116.743 402.902 117.202 403.21 117.813C403.517 118.424 403.671 119.179 403.671 120.079V127.018H401.548V120.334C401.548 119.544 401.342 118.926 400.93 118.481C400.518 118.031 399.952 117.806 399.232 117.806C398.74 117.806 398.302 117.912 397.919 118.126C397.54 118.339 397.239 118.651 397.017 119.063C396.799 119.47 396.69 119.963 396.69 120.54Z" fill="black"/>
</g>
<g filter="url(#filter4_d_366_20675)">
<rect x="400.329" y="501.643" width="65.3569" height="65.3569" rx="32.6784" fill="white" shape-rendering="crispEdges"/>
<path d="M433.008 521.655C426.759 521.655 421.675 526.739 421.675 532.988C421.675 539.632 427.847 543.709 431.931 546.407L432.637 546.876C432.749 546.951 432.879 546.988 433.007 546.988C433.135 546.988 433.264 546.951 433.376 546.876L434.083 546.407C438.167 543.709 444.339 539.632 444.339 532.988C444.341 526.739 439.257 521.655 433.008 521.655ZM433.008 536.321C431.167 536.321 429.675 534.829 429.675 532.988C429.675 531.147 431.167 529.655 433.008 529.655C434.849 529.655 436.341 531.147 436.341 532.988C436.341 534.829 434.849 536.321 433.008 536.321Z" fill="#A22C91"/>
</g>
<g filter="url(#filter5_d_366_20675)">
<rect x="371.999" y="583.678" width="122.018" height="40.6784" rx="8.33922" fill="white" shape-rendering="crispEdges"/>
<path d="M388.773 596.472V611.018H386.578V596.472H388.773ZM393.922 604.54V611.018H391.799V600.108H393.837V601.884H393.972C394.223 601.306 394.616 600.842 395.151 600.492C395.691 600.142 396.37 599.966 397.189 599.966C397.933 599.966 398.584 600.123 399.142 600.435C399.701 600.743 400.134 601.202 400.442 601.813C400.75 602.424 400.904 603.179 400.904 604.079V611.018H398.78V604.334C398.78 603.544 398.574 602.926 398.162 602.481C397.75 602.031 397.185 601.806 396.465 601.806C395.972 601.806 395.534 601.912 395.151 602.126C394.772 602.339 394.471 602.651 394.249 603.063C394.031 603.47 393.922 603.963 393.922 604.54ZM408.944 600.108V601.813H402.779V600.108H408.944ZM404.469 611.018V598.844C404.469 598.162 404.618 597.597 404.917 597.147C405.215 596.692 405.61 596.354 406.103 596.131C406.595 595.904 407.13 595.79 407.708 595.79C408.134 595.79 408.498 595.826 408.801 595.897C409.105 595.963 409.329 596.025 409.476 596.081L408.979 597.8C408.88 597.772 408.752 597.739 408.596 597.701C408.439 597.658 408.25 597.637 408.027 597.637C407.511 597.637 407.142 597.765 406.919 598.02C406.702 598.276 406.593 598.645 406.593 599.128V611.018H404.469ZM413.258 596.472V611.018H411.135V596.472H413.258ZM423.026 606.493V600.108H425.156V611.018H423.068V609.128H422.955C422.704 609.711 422.301 610.196 421.747 610.584C421.198 610.968 420.514 611.16 419.695 611.16C418.994 611.16 418.374 611.006 417.834 610.698C417.299 610.385 416.877 609.924 416.57 609.313C416.267 608.702 416.115 607.947 416.115 607.047V600.108H418.239V606.792C418.239 607.535 418.445 608.127 418.857 608.567C419.268 609.008 419.804 609.228 420.462 609.228C420.859 609.228 421.255 609.128 421.648 608.93C422.045 608.731 422.375 608.43 422.635 608.028C422.9 607.625 423.03 607.114 423.026 606.493ZM432.711 611.238C431.636 611.238 430.711 611.008 429.934 610.549C429.163 610.085 428.566 609.434 428.145 608.596C427.728 607.753 427.52 606.766 427.52 605.634C427.52 604.517 427.728 603.532 428.145 602.68C428.566 601.827 429.153 601.162 429.906 600.684C430.663 600.206 431.549 599.966 432.562 599.966C433.178 599.966 433.774 600.068 434.352 600.272C434.93 600.475 435.448 600.795 435.907 601.231C436.367 601.666 436.729 602.232 436.994 602.928C437.259 603.619 437.392 604.46 437.392 605.449V606.202H428.72V604.611H435.311C435.311 604.053 435.197 603.558 434.97 603.127C434.743 602.691 434.423 602.348 434.011 602.097C433.604 601.846 433.126 601.721 432.576 601.721C431.98 601.721 431.459 601.867 431.014 602.161C430.574 602.45 430.233 602.829 429.991 603.297C429.754 603.761 429.636 604.266 429.636 604.81V606.053C429.636 606.782 429.764 607.403 430.02 607.914C430.28 608.425 430.642 608.816 431.106 609.086C431.57 609.351 432.112 609.483 432.733 609.483C433.135 609.483 433.502 609.427 433.833 609.313C434.165 609.195 434.451 609.019 434.693 608.787C434.934 608.555 435.119 608.269 435.247 607.928L437.257 608.29C437.096 608.882 436.807 609.401 436.39 609.846C435.978 610.286 435.46 610.629 434.835 610.876C434.215 611.117 433.507 611.238 432.711 611.238ZM441.871 604.54V611.018H439.748V600.108H441.786V601.884H441.921C442.172 601.306 442.565 600.842 443.1 600.492C443.64 600.142 444.319 599.966 445.138 599.966C445.882 599.966 446.533 600.123 447.092 600.435C447.65 600.743 448.084 601.202 448.391 601.813C448.699 602.424 448.853 603.179 448.853 604.079V611.018H446.729V604.334C446.729 603.544 446.523 602.926 446.112 602.481C445.7 602.031 445.134 601.806 444.414 601.806C443.922 601.806 443.484 601.912 443.1 602.126C442.721 602.339 442.421 602.651 442.198 603.063C441.98 603.47 441.871 603.963 441.871 604.54ZM456.296 611.238C455.24 611.238 454.331 610.999 453.569 610.52C452.811 610.037 452.229 609.372 451.822 608.525C451.415 607.677 451.211 606.706 451.211 605.613C451.211 604.505 451.419 603.527 451.836 602.68C452.253 601.827 452.84 601.162 453.597 600.684C454.355 600.206 455.247 599.966 456.275 599.966C457.103 599.966 457.842 600.12 458.491 600.428C459.139 600.731 459.663 601.157 460.06 601.706C460.463 602.256 460.702 602.897 460.778 603.631H458.711C458.597 603.12 458.337 602.68 457.93 602.31C457.527 601.941 456.987 601.756 456.31 601.756C455.719 601.756 455.2 601.912 454.755 602.225C454.315 602.533 453.971 602.973 453.725 603.546C453.479 604.114 453.356 604.787 453.356 605.563C453.356 606.358 453.477 607.045 453.718 607.623C453.96 608.2 454.3 608.648 454.741 608.965C455.186 609.282 455.709 609.441 456.31 609.441C456.713 609.441 457.077 609.367 457.404 609.221C457.736 609.069 458.013 608.854 458.235 608.574C458.462 608.295 458.621 607.959 458.711 607.566H460.778C460.702 608.271 460.472 608.901 460.089 609.455C459.705 610.009 459.192 610.445 458.548 610.762C457.908 611.079 457.158 611.238 456.296 611.238ZM467.75 611.238C466.676 611.238 465.75 611.008 464.973 610.549C464.202 610.085 463.605 609.434 463.184 608.596C462.767 607.753 462.559 606.766 462.559 605.634C462.559 604.517 462.767 603.532 463.184 602.68C463.605 601.827 464.192 601.162 464.945 600.684C465.703 600.206 466.588 599.966 467.601 599.966C468.217 599.966 468.813 600.068 469.391 600.272C469.969 600.475 470.487 600.795 470.946 601.231C471.406 601.666 471.768 602.232 472.033 602.928C472.298 603.619 472.431 604.46 472.431 605.449V606.202H463.759V604.611H470.35C470.35 604.053 470.236 603.558 470.009 603.127C469.782 602.691 469.462 602.348 469.05 602.097C468.643 601.846 468.165 601.721 467.615 601.721C467.019 601.721 466.498 601.867 466.053 602.161C465.613 602.45 465.272 602.829 465.03 603.297C464.793 603.761 464.675 604.266 464.675 604.81V606.053C464.675 606.782 464.803 607.403 465.059 607.914C465.319 608.425 465.681 608.816 466.145 609.086C466.609 609.351 467.151 609.483 467.772 609.483C468.174 609.483 468.541 609.427 468.873 609.313C469.204 609.195 469.49 609.019 469.732 608.787C469.973 608.555 470.158 608.269 470.286 607.928L472.296 608.29C472.135 608.882 471.846 609.401 471.429 609.846C471.017 610.286 470.499 610.629 469.874 610.876C469.254 611.117 468.546 611.238 467.75 611.238ZM474.787 611.018V600.108H476.839V601.841H476.953C477.152 601.254 477.502 600.793 478.004 600.456C478.511 600.116 479.084 599.945 479.723 599.945C479.856 599.945 480.012 599.95 480.192 599.959C480.376 599.969 480.521 599.981 480.625 599.995V602.026C480.54 602.002 480.388 601.976 480.17 601.948C479.953 601.915 479.735 601.898 479.517 601.898C479.015 601.898 478.568 602.005 478.175 602.218C477.786 602.426 477.479 602.717 477.251 603.091C477.024 603.461 476.911 603.882 476.911 604.356V611.018H474.787Z" fill="black"/>
</g>
<g filter="url(#filter6_d_366_20675)">
<rect x="44.3215" y="294.643" width="65.3569" height="65.3569" rx="32.6784" fill="white" shape-rendering="crispEdges"/>
<path d="M77.0001 314.655C70.7507 314.655 65.6667 319.739 65.6667 325.988C65.6667 332.632 71.8388 336.709 75.9228 339.407L76.6294 339.876C76.7414 339.951 76.8707 339.988 76.9987 339.988C77.1267 339.988 77.2561 339.951 77.3681 339.876L78.0747 339.407C82.1587 336.709 88.3308 332.632 88.3308 325.988C88.3334 319.739 83.2494 314.655 77.0001 314.655ZM77.0001 329.321C75.1587 329.321 73.6667 327.829 73.6667 325.988C73.6667 324.147 75.1587 322.655 77.0001 322.655C78.8414 322.655 80.3334 324.147 80.3334 325.988C80.3334 327.829 78.8414 329.321 77.0001 329.321Z" fill="#D83043"/>
</g>
<g filter="url(#filter7_d_366_20675)">
<rect x="17.4912" y="376.678" width="119.018" height="40.6784" rx="8.33922" fill="white" shape-rendering="crispEdges"/>
<path d="M43.7844 394.202H41.5685C41.4833 393.729 41.3247 393.312 41.0927 392.952C40.8607 392.592 40.5766 392.287 40.2404 392.036C39.9042 391.785 39.5278 391.596 39.1112 391.468C38.6992 391.34 38.2612 391.276 37.7972 391.276C36.9592 391.276 36.2087 391.487 35.5458 391.908C34.8877 392.33 34.3668 392.948 33.9833 393.762C33.6045 394.576 33.4151 395.571 33.4151 396.745C33.4151 397.929 33.6045 398.928 33.9833 399.742C34.3668 400.556 34.89 401.172 35.5529 401.589C36.2158 402.005 36.9615 402.214 37.7901 402.214C38.2494 402.214 38.685 402.152 39.0969 402.029C39.5136 401.901 39.89 401.714 40.2262 401.468C40.5624 401.222 40.8465 400.921 41.0785 400.566C41.3152 400.206 41.4786 399.794 41.5685 399.33L43.7844 399.337C43.6661 400.052 43.4364 400.71 43.0955 401.312C42.7594 401.908 42.3261 402.424 41.7958 402.86C41.2702 403.291 40.6689 403.625 39.9918 403.861C39.3147 404.098 38.5761 404.216 37.7759 404.216C36.5165 404.216 35.3943 403.918 34.4094 403.322C33.4246 402.72 32.6481 401.861 32.0799 400.743C31.5165 399.626 31.2347 398.293 31.2347 396.745C31.2347 395.192 31.5188 393.859 32.087 392.746C32.6552 391.629 33.4317 390.772 34.4165 390.175C35.4014 389.574 36.5212 389.273 37.7759 389.273C38.5477 389.273 39.2674 389.385 39.935 389.607C40.6074 389.825 41.2111 390.147 41.7461 390.573C42.2811 390.994 42.7238 391.51 43.0742 392.121C43.4246 392.727 43.6613 393.421 43.7844 394.202ZM53.1506 399.493V393.108H55.2812V404.018H53.1932V402.128H53.0795C52.8286 402.711 52.4261 403.196 51.8722 403.584C51.3229 403.968 50.6387 404.16 49.8196 404.16C49.1188 404.16 48.4986 404.006 47.9588 403.698C47.4238 403.385 47.0024 402.924 46.6946 402.313C46.3916 401.702 46.2401 400.947 46.2401 400.047V393.108H48.3636V399.792C48.3636 400.535 48.5696 401.127 48.9815 401.567C49.3935 402.008 49.9285 402.228 50.5866 402.228C50.9844 402.228 51.3797 402.128 51.7727 401.93C52.1705 401.731 52.4995 401.43 52.7599 401.028C53.0251 400.625 53.1553 400.114 53.1506 399.493ZM66.3093 395.772L64.3846 396.113C64.3041 395.867 64.1763 395.632 64.0011 395.41C63.8306 395.187 63.5986 395.005 63.305 394.863C63.0115 394.721 62.6445 394.65 62.2042 394.65C61.6029 394.65 61.101 394.785 60.6985 395.055C60.296 395.32 60.0948 395.663 60.0948 396.084C60.0948 396.449 60.2298 396.742 60.4996 396.965C60.7695 397.188 61.2051 397.37 61.8065 397.512L63.5394 397.91C64.5432 398.142 65.2913 398.499 65.7837 398.982C66.2762 399.465 66.5224 400.092 66.5224 400.864C66.5224 401.518 66.333 402.1 65.9542 402.611C65.5801 403.118 65.0569 403.516 64.3846 403.805C63.717 404.093 62.9428 404.238 62.0621 404.238C60.8406 404.238 59.8439 403.977 59.0721 403.456C58.3003 402.931 57.8268 402.185 57.6516 401.219L59.7042 400.907C59.832 401.442 60.0948 401.847 60.4925 402.121C60.8903 402.391 61.4087 402.526 62.0479 402.526C62.744 402.526 63.3003 402.382 63.717 402.093C64.1336 401.799 64.342 401.442 64.342 401.02C64.342 400.68 64.2141 400.393 63.9585 400.161C63.7075 399.929 63.3216 399.754 62.8008 399.635L60.9542 399.231C59.9362 398.999 59.1834 398.629 58.6957 398.123C58.2127 397.616 57.9712 396.974 57.9712 396.198C57.9712 395.554 58.1512 394.991 58.511 394.508C58.8709 394.025 59.368 393.648 60.0025 393.378C60.637 393.104 61.3638 392.966 62.1829 392.966C63.3619 392.966 64.2899 393.222 64.967 393.733C65.6441 394.24 66.0915 394.92 66.3093 395.772ZM73.9496 393.108V394.813H67.9908V393.108H73.9496ZM69.5888 390.495H71.7124V400.814C71.7124 401.226 71.7739 401.537 71.897 401.745C72.0201 401.948 72.1787 402.088 72.3729 402.164C72.5717 402.235 72.7872 402.27 73.0192 402.27C73.1896 402.27 73.3388 402.259 73.4666 402.235C73.5945 402.211 73.6939 402.192 73.7649 402.178L74.1484 403.932C74.0253 403.98 73.8501 404.027 73.6229 404.074C73.3956 404.126 73.1115 404.155 72.7706 404.16C72.2119 404.169 71.6911 404.07 71.2081 403.861C70.7251 403.653 70.3345 403.331 70.0362 402.895C69.7379 402.46 69.5888 401.913 69.5888 401.255V390.495ZM80.7766 404.238C79.7539 404.238 78.8614 404.003 78.0991 403.535C77.3368 403.066 76.7449 402.41 76.3235 401.567C75.9021 400.724 75.6914 399.74 75.6914 398.613C75.6914 397.481 75.9021 396.492 76.3235 395.644C76.7449 394.796 77.3368 394.138 78.0991 393.67C78.8614 393.201 79.7539 392.966 80.7766 392.966C81.7994 392.966 82.6919 393.201 83.4542 393.67C84.2165 394.138 84.8084 394.796 85.2298 395.644C85.6512 396.492 85.8619 397.481 85.8619 398.613C85.8619 399.74 85.6512 400.724 85.2298 401.567C84.8084 402.41 84.2165 403.066 83.4542 403.535C82.6919 404.003 81.7994 404.238 80.7766 404.238ZM80.7837 402.455C81.4466 402.455 81.9959 402.28 82.4315 401.93C82.8671 401.579 83.189 401.113 83.3974 400.53C83.6104 399.948 83.717 399.306 83.717 398.606C83.717 397.91 83.6104 397.27 83.3974 396.688C83.189 396.101 82.8671 395.63 82.4315 395.275C81.9959 394.92 81.4466 394.742 80.7837 394.742C80.1161 394.742 79.5621 394.92 79.1218 395.275C78.6862 395.63 78.3619 396.101 78.1488 396.688C77.9405 397.27 77.8363 397.91 77.8363 398.606C77.8363 399.306 77.9405 399.948 78.1488 400.53C78.3619 401.113 78.6862 401.579 79.1218 401.93C79.5621 402.28 80.1161 402.455 80.7837 402.455ZM88.2322 404.018V393.108H90.2706V394.884H90.4055C90.6328 394.283 91.0045 393.814 91.5206 393.478C92.0367 393.137 92.6546 392.966 93.3743 392.966C94.1035 392.966 94.7143 393.137 95.2067 393.478C95.7038 393.819 96.0708 394.287 96.3075 394.884H96.4212C96.6816 394.302 97.0959 393.838 97.6641 393.492C98.2322 393.142 98.9093 392.966 99.6953 392.966C100.685 392.966 101.492 393.277 102.117 393.897C102.747 394.517 103.062 395.452 103.062 396.702V404.018H100.938V396.901C100.938 396.162 100.737 395.627 100.335 395.296C99.9321 394.965 99.4515 394.799 98.8928 394.799C98.2015 394.799 97.6641 395.012 97.2805 395.438C96.897 395.859 96.7053 396.402 96.7053 397.064V404.018H94.5888V396.766C94.5888 396.174 94.4041 395.698 94.0348 395.339C93.6655 394.979 93.1849 394.799 92.593 394.799C92.1906 394.799 91.8189 394.905 91.478 395.118C91.1418 395.327 90.8696 395.618 90.6612 395.992C90.4576 396.366 90.3558 396.799 90.3558 397.292V404.018H88.2322ZM110.61 404.238C109.535 404.238 108.609 404.008 107.833 403.549C107.061 403.085 106.464 402.434 106.043 401.596C105.626 400.753 105.418 399.766 105.418 398.634C105.418 397.517 105.626 396.532 106.043 395.68C106.464 394.827 107.051 394.162 107.804 393.684C108.562 393.206 109.447 392.966 110.461 392.966C111.076 392.966 111.673 393.068 112.25 393.272C112.828 393.475 113.346 393.795 113.806 394.231C114.265 394.666 114.627 395.232 114.892 395.928C115.158 396.619 115.29 397.46 115.29 398.449V399.202H106.618V397.611H113.209C113.209 397.053 113.096 396.558 112.868 396.127C112.641 395.691 112.321 395.348 111.909 395.097C111.502 394.846 111.024 394.721 110.475 394.721C109.878 394.721 109.357 394.867 108.912 395.161C108.472 395.45 108.131 395.829 107.89 396.297C107.653 396.761 107.534 397.266 107.534 397.81V399.053C107.534 399.782 107.662 400.403 107.918 400.914C108.178 401.425 108.541 401.816 109.005 402.086C109.469 402.351 110.011 402.483 110.631 402.483C111.033 402.483 111.4 402.427 111.732 402.313C112.063 402.195 112.35 402.019 112.591 401.787C112.833 401.555 113.017 401.269 113.145 400.928L115.155 401.29C114.994 401.882 114.705 402.401 114.289 402.846C113.877 403.286 113.358 403.629 112.733 403.876C112.113 404.117 111.405 404.238 110.61 404.238ZM117.646 404.018V393.108H119.699V394.841H119.812C120.011 394.254 120.362 393.793 120.864 393.456C121.37 393.116 121.943 392.945 122.582 392.945C122.715 392.945 122.871 392.95 123.051 392.959C123.236 392.969 123.38 392.981 123.484 392.995V395.026C123.399 395.002 123.248 394.976 123.03 394.948C122.812 394.915 122.594 394.898 122.376 394.898C121.875 394.898 121.427 395.005 121.034 395.218C120.646 395.426 120.338 395.717 120.111 396.091C119.884 396.461 119.77 396.882 119.77 397.356V404.018H117.646Z" fill="black"/>
</g>
<g filter="url(#filter8_d_366_20675)">
<rect x="506.329" y="109.643" width="65.3569" height="65.3569" rx="32.6784" fill="white" shape-rendering="crispEdges"/>
<path d="M539.008 129.655C532.759 129.655 527.675 134.739 527.675 140.988C527.675 147.632 533.847 151.709 537.931 154.407L538.637 154.876C538.749 154.951 538.879 154.988 539.007 154.988C539.135 154.988 539.264 154.951 539.376 154.876L540.083 154.407C544.167 151.709 550.339 147.632 550.339 140.988C550.341 134.739 545.257 129.655 539.008 129.655ZM539.008 144.321C537.167 144.321 535.675 142.829 535.675 140.988C535.675 139.147 537.167 137.655 539.008 137.655C540.849 137.655 542.341 139.147 542.341 140.988C542.341 142.829 540.849 144.321 539.008 144.321Z" fill="#D83043"/>
</g>
<g filter="url(#filter9_d_366_20675)">
<rect x="500.499" y="191.678" width="77.0177" height="40.6784" rx="8.33922" fill="white" shape-rendering="crispEdges"/>
<path d="M522.689 208.293C522.614 207.621 522.301 207.1 521.752 206.731C521.203 206.357 520.511 206.17 519.678 206.17C519.081 206.17 518.565 206.264 518.13 206.454C517.694 206.638 517.356 206.894 517.114 207.221C516.877 207.543 516.759 207.91 516.759 208.322C516.759 208.667 516.84 208.965 517.001 209.216C517.166 209.467 517.382 209.678 517.647 209.849C517.917 210.014 518.206 210.154 518.513 210.268C518.821 210.376 519.117 210.466 519.401 210.537L520.822 210.907C521.286 211.02 521.761 211.174 522.249 211.368C522.737 211.563 523.189 211.818 523.606 212.135C524.022 212.453 524.358 212.846 524.614 213.314C524.875 213.783 525.005 214.344 525.005 214.998C525.005 215.822 524.792 216.553 524.366 217.192C523.944 217.831 523.331 218.336 522.526 218.705C521.726 219.074 520.758 219.259 519.621 219.259C518.532 219.259 517.59 219.086 516.795 218.741C515.999 218.395 515.376 217.905 514.927 217.27C514.477 216.631 514.228 215.874 514.181 214.998H516.383C516.425 215.523 516.596 215.961 516.894 216.312C517.197 216.657 517.583 216.915 518.052 217.086C518.525 217.251 519.044 217.334 519.607 217.334C520.227 217.334 520.779 217.237 521.262 217.043C521.75 216.844 522.133 216.57 522.412 216.219C522.692 215.864 522.831 215.45 522.831 214.976C522.831 214.546 522.708 214.193 522.462 213.918C522.221 213.644 521.892 213.416 521.475 213.236C521.063 213.056 520.597 212.898 520.076 212.76L518.357 212.292C517.192 211.974 516.269 211.508 515.587 210.893C514.91 210.277 514.572 209.463 514.572 208.449C514.572 207.611 514.799 206.88 515.253 206.255C515.708 205.63 516.323 205.144 517.1 204.799C517.876 204.448 518.752 204.273 519.728 204.273C520.713 204.273 521.581 204.446 522.334 204.792C523.092 205.137 523.689 205.613 524.124 206.219C524.56 206.821 524.787 207.512 524.806 208.293H522.689ZM530.632 219.259C529.94 219.259 529.315 219.131 528.757 218.876C528.198 218.615 527.755 218.239 527.428 217.746C527.106 217.254 526.945 216.65 526.945 215.935C526.945 215.32 527.064 214.813 527.301 214.415C527.537 214.018 527.857 213.703 528.259 213.471C528.662 213.239 529.112 213.064 529.609 212.945C530.106 212.827 530.613 212.737 531.129 212.675C531.782 212.599 532.312 212.538 532.72 212.491C533.127 212.439 533.423 212.356 533.607 212.242C533.792 212.128 533.884 211.944 533.884 211.688V211.638C533.884 211.018 533.709 210.537 533.359 210.197C533.013 209.856 532.497 209.685 531.811 209.685C531.096 209.685 530.532 209.844 530.12 210.161C529.713 210.474 529.431 210.822 529.275 211.205L527.279 210.751C527.516 210.088 527.862 209.553 528.316 209.145C528.776 208.733 529.303 208.435 529.9 208.251C530.497 208.061 531.124 207.966 531.782 207.966C532.218 207.966 532.679 208.019 533.167 208.123C533.66 208.222 534.119 208.407 534.545 208.677C534.976 208.947 535.329 209.332 535.603 209.834C535.878 210.331 536.015 210.978 536.015 211.773V219.018H533.941V217.526H533.856C533.719 217.801 533.513 218.071 533.238 218.336C532.963 218.601 532.611 218.821 532.18 218.996C531.749 219.171 531.233 219.259 530.632 219.259ZM531.093 217.555C531.68 217.555 532.182 217.439 532.599 217.206C533.02 216.974 533.34 216.671 533.558 216.297C533.78 215.919 533.892 215.514 533.892 215.083V213.677C533.816 213.752 533.669 213.823 533.451 213.89C533.238 213.951 532.994 214.006 532.72 214.053C532.445 214.096 532.177 214.136 531.917 214.174C531.657 214.207 531.439 214.235 531.264 214.259C530.852 214.311 530.475 214.399 530.134 214.522C529.798 214.645 529.528 214.823 529.325 215.055C529.126 215.282 529.026 215.585 529.026 215.964C529.026 216.489 529.221 216.887 529.609 217.157C529.997 217.422 530.492 217.555 531.093 217.555ZM540.967 204.472V219.018H538.844V204.472H540.967ZM548.526 219.238C547.451 219.238 546.525 219.008 545.749 218.549C544.977 218.085 544.38 217.434 543.959 216.596C543.542 215.753 543.334 214.766 543.334 213.634C543.334 212.517 543.542 211.532 543.959 210.68C544.38 209.827 544.968 209.162 545.72 208.684C546.478 208.206 547.363 207.966 548.377 207.966C548.992 207.966 549.589 208.068 550.166 208.272C550.744 208.475 551.262 208.795 551.722 209.231C552.181 209.666 552.543 210.232 552.808 210.928C553.074 211.619 553.206 212.46 553.206 213.449V214.202H544.534V212.611H551.125C551.125 212.053 551.012 211.558 550.784 211.127C550.557 210.691 550.237 210.348 549.825 210.097C549.418 209.846 548.94 209.721 548.391 209.721C547.794 209.721 547.273 209.867 546.828 210.161C546.388 210.45 546.047 210.829 545.806 211.297C545.569 211.761 545.45 212.266 545.45 212.81V214.053C545.45 214.782 545.578 215.403 545.834 215.914C546.094 216.425 546.457 216.816 546.921 217.086C547.385 217.351 547.927 217.483 548.547 217.483C548.95 217.483 549.316 217.427 549.648 217.313C549.979 217.195 550.266 217.019 550.507 216.787C550.749 216.555 550.933 216.269 551.061 215.928L553.071 216.29C552.91 216.882 552.621 217.401 552.205 217.846C551.793 218.286 551.274 218.629 550.649 218.876C550.029 219.117 549.321 219.238 548.526 219.238ZM563.737 210.772L561.812 211.113C561.732 210.867 561.604 210.632 561.429 210.41C561.258 210.187 561.026 210.005 560.733 209.863C560.439 209.721 560.072 209.65 559.632 209.65C559.031 209.65 558.529 209.785 558.126 210.055C557.724 210.32 557.523 210.663 557.523 211.084C557.523 211.449 557.657 211.742 557.927 211.965C558.197 212.188 558.633 212.37 559.234 212.512L560.967 212.91C561.971 213.142 562.719 213.499 563.211 213.982C563.704 214.465 563.95 215.092 563.95 215.864C563.95 216.518 563.761 217.1 563.382 217.611C563.008 218.118 562.485 218.516 561.812 218.805C561.145 219.093 560.371 219.238 559.49 219.238C558.268 219.238 557.272 218.977 556.5 218.456C555.728 217.931 555.255 217.185 555.079 216.219L557.132 215.907C557.26 216.442 557.523 216.847 557.92 217.121C558.318 217.391 558.836 217.526 559.476 217.526C560.172 217.526 560.728 217.382 561.145 217.093C561.561 216.799 561.77 216.442 561.77 216.02C561.77 215.68 561.642 215.393 561.386 215.161C561.135 214.929 560.749 214.754 560.229 214.635L558.382 214.231C557.364 213.999 556.611 213.629 556.123 213.123C555.64 212.616 555.399 211.974 555.399 211.198C555.399 210.554 555.579 209.991 555.939 209.508C556.299 209.025 556.796 208.648 557.43 208.378C558.065 208.104 558.791 207.966 559.611 207.966C560.79 207.966 561.718 208.222 562.395 208.733C563.072 209.24 563.519 209.92 563.737 210.772Z" fill="black"/>
</g>
<g filter="url(#filter10_d_366_20675)">
<rect x="476.942" y="317.738" width="65.3569" height="65.3569" rx="32.6784" fill="white" shape-rendering="crispEdges"/>
<path d="M509.621 337.75C503.372 337.75 498.288 342.834 498.288 349.083C498.288 355.727 504.46 359.805 508.544 362.502L509.25 362.971C509.362 363.046 509.492 363.083 509.62 363.083C509.748 363.083 509.877 363.046 509.989 362.971L510.696 362.502C514.78 359.805 520.952 355.727 520.952 349.083C520.954 342.834 515.87 337.75 509.621 337.75ZM509.621 352.417C507.78 352.417 506.288 350.925 506.288 349.083C506.288 347.242 507.78 345.75 509.621 345.75C511.462 345.75 512.954 347.242 512.954 349.083C512.954 350.925 511.462 352.417 509.621 352.417Z" fill="#FEBF3B"/>
</g>
<g filter="url(#filter11_d_366_20675)">
<rect x="446.112" y="399.774" width="127.018" height="40.6784" rx="8.33922" fill="white" shape-rendering="crispEdges"/>
<path d="M465.078 427.113H460.369V412.568H465.227C466.652 412.568 467.876 412.859 468.899 413.441C469.921 414.019 470.705 414.85 471.249 415.934C471.799 417.014 472.073 418.309 472.073 419.819C472.073 421.334 471.796 422.636 471.242 423.725C470.693 424.815 469.898 425.653 468.856 426.24C467.814 426.822 466.555 427.113 465.078 427.113ZM462.563 425.196H464.957C466.065 425.196 466.986 424.987 467.72 424.571C468.454 424.149 469.003 423.541 469.367 422.745C469.732 421.945 469.914 420.97 469.914 419.819C469.914 418.678 469.732 417.71 469.367 416.914C469.007 416.119 468.47 415.515 467.755 415.103C467.04 414.691 466.152 414.485 465.092 414.485H462.563V425.196ZM474.632 427.113V416.204H476.755V427.113H474.632ZM475.704 414.521C475.335 414.521 475.018 414.398 474.753 414.152C474.492 413.901 474.362 413.602 474.362 413.257C474.362 412.906 474.492 412.608 474.753 412.362C475.018 412.111 475.335 411.985 475.704 411.985C476.074 411.985 476.389 412.111 476.649 412.362C476.914 412.608 477.047 412.906 477.047 413.257C477.047 413.602 476.914 413.901 476.649 414.152C476.389 414.398 476.074 414.521 475.704 414.521ZM487.787 418.868L485.862 419.208C485.782 418.962 485.654 418.728 485.479 418.505C485.308 418.283 485.076 418.1 484.783 417.958C484.489 417.816 484.122 417.745 483.682 417.745C483.081 417.745 482.579 417.88 482.176 418.15C481.774 418.415 481.573 418.759 481.573 419.18C481.573 419.545 481.708 419.838 481.977 420.061C482.247 420.283 482.683 420.466 483.284 420.608L485.017 421.005C486.021 421.237 486.769 421.595 487.262 422.078C487.754 422.561 488 423.188 488 423.96C488 424.613 487.811 425.196 487.432 425.707C487.058 426.214 486.535 426.611 485.862 426.9C485.195 427.189 484.421 427.333 483.54 427.333C482.318 427.333 481.322 427.073 480.55 426.552C479.778 426.027 479.305 425.281 479.129 424.315L481.182 424.002C481.31 424.538 481.573 424.942 481.97 425.217C482.368 425.487 482.887 425.622 483.526 425.622C484.222 425.622 484.778 425.477 485.195 425.189C485.611 424.895 485.82 424.538 485.82 424.116C485.82 423.775 485.692 423.489 485.436 423.257C485.185 423.025 484.799 422.85 484.279 422.731L482.432 422.326C481.414 422.094 480.661 421.725 480.173 421.218C479.69 420.712 479.449 420.07 479.449 419.294C479.449 418.65 479.629 418.086 479.989 417.603C480.349 417.12 480.846 416.744 481.48 416.474C482.115 416.199 482.842 416.062 483.661 416.062C484.84 416.062 485.768 416.318 486.445 416.829C487.122 417.336 487.569 418.015 487.787 418.868ZM495.427 416.204V417.909H489.469V416.204H495.427ZM491.067 413.591H493.19V423.91C493.19 424.322 493.252 424.632 493.375 424.841C493.498 425.044 493.657 425.184 493.851 425.26C494.05 425.331 494.265 425.366 494.497 425.366C494.667 425.366 494.817 425.354 494.944 425.331C495.072 425.307 495.172 425.288 495.243 425.274L495.626 427.028C495.503 427.075 495.328 427.123 495.101 427.17C494.873 427.222 494.589 427.251 494.248 427.255C493.69 427.265 493.169 427.165 492.686 426.957C492.203 426.749 491.812 426.427 491.514 425.991C491.216 425.556 491.067 425.009 491.067 424.35V413.591ZM497.776 427.113V416.204H499.829V417.937H499.943C500.141 417.35 500.492 416.888 500.994 416.552C501.5 416.211 502.073 416.041 502.713 416.041C502.845 416.041 503.001 416.046 503.181 416.055C503.366 416.065 503.51 416.076 503.615 416.091V418.122C503.529 418.098 503.378 418.072 503.16 418.044C502.942 418.011 502.724 417.994 502.507 417.994C502.005 417.994 501.557 418.1 501.164 418.314C500.776 418.522 500.468 418.813 500.241 419.187C500.014 419.556 499.9 419.978 499.9 420.451V427.113H497.776ZM505.452 427.113V416.204H507.576V427.113H505.452ZM506.525 414.521C506.155 414.521 505.838 414.398 505.573 414.152C505.313 413.901 505.182 413.602 505.182 413.257C505.182 412.906 505.313 412.608 505.573 412.362C505.838 412.111 506.155 411.985 506.525 411.985C506.894 411.985 507.209 412.111 507.469 412.362C507.734 412.608 507.867 412.906 507.867 413.257C507.867 413.602 507.734 413.901 507.469 414.152C507.209 414.398 506.894 414.521 506.525 414.521ZM510.603 427.113V412.568H512.727V417.973H512.855C512.978 417.745 513.155 417.483 513.387 417.184C513.619 416.886 513.941 416.626 514.353 416.403C514.765 416.176 515.31 416.062 515.987 416.062C516.867 416.062 517.653 416.285 518.345 416.73C519.036 417.175 519.578 417.816 519.971 418.654C520.369 419.493 520.568 420.501 520.568 421.68C520.568 422.859 520.371 423.87 519.978 424.713C519.585 425.551 519.045 426.197 518.359 426.652C517.672 427.101 516.889 427.326 516.008 427.326C515.345 427.326 514.803 427.215 514.382 426.993C513.965 426.77 513.638 426.51 513.401 426.211C513.165 425.913 512.982 425.648 512.855 425.416H512.677V427.113H510.603ZM512.684 421.659C512.684 422.426 512.795 423.098 513.018 423.676C513.24 424.253 513.562 424.706 513.984 425.032C514.405 425.354 514.921 425.515 515.532 425.515C516.167 425.515 516.697 425.347 517.123 425.011C517.549 424.67 517.871 424.208 518.089 423.626C518.311 423.044 518.423 422.388 518.423 421.659C518.423 420.939 518.314 420.293 518.096 419.72C517.883 419.147 517.561 418.695 517.13 418.363C516.704 418.032 516.171 417.866 515.532 417.866C514.917 417.866 514.396 418.025 513.97 418.342C513.548 418.659 513.229 419.102 513.011 419.67C512.793 420.238 512.684 420.901 512.684 421.659ZM529.863 422.589V416.204H531.993V427.113H529.905V425.224H529.792C529.541 425.806 529.138 426.292 528.584 426.68C528.035 427.064 527.351 427.255 526.532 427.255C525.831 427.255 525.211 427.101 524.671 426.794C524.136 426.481 523.715 426.02 523.407 425.409C523.104 424.798 522.952 424.043 522.952 423.143V416.204H525.076V422.887C525.076 423.631 525.282 424.223 525.694 424.663C526.106 425.103 526.641 425.324 527.299 425.324C527.697 425.324 528.092 425.224 528.485 425.025C528.883 424.826 529.212 424.526 529.472 424.123C529.737 423.721 529.867 423.209 529.863 422.589ZM539.939 416.204V417.909H533.98V416.204H539.939ZM535.578 413.591H537.702V423.91C537.702 424.322 537.763 424.632 537.887 424.841C538.01 425.044 538.168 425.184 538.362 425.26C538.561 425.331 538.777 425.366 539.009 425.366C539.179 425.366 539.328 425.354 539.456 425.331C539.584 425.307 539.683 425.288 539.754 425.274L540.138 427.028C540.015 427.075 539.84 427.123 539.612 427.17C539.385 427.222 539.101 427.251 538.76 427.255C538.201 427.265 537.681 427.165 537.198 426.957C536.715 426.749 536.324 426.427 536.026 425.991C535.727 425.556 535.578 425.009 535.578 424.35V413.591ZM546.766 427.333C545.743 427.333 544.851 427.099 544.089 426.63C543.326 426.162 542.734 425.506 542.313 424.663C541.892 423.82 541.681 422.835 541.681 421.708C541.681 420.577 541.892 419.587 542.313 418.74C542.734 417.892 543.326 417.234 544.089 416.765C544.851 416.297 545.743 416.062 546.766 416.062C547.789 416.062 548.681 416.297 549.444 416.765C550.206 417.234 550.798 417.892 551.219 418.74C551.641 419.587 551.851 420.577 551.851 421.708C551.851 422.835 551.641 423.82 551.219 424.663C550.798 425.506 550.206 426.162 549.444 426.63C548.681 427.099 547.789 427.333 546.766 427.333ZM546.773 425.551C547.436 425.551 547.985 425.376 548.421 425.025C548.857 424.675 549.179 424.208 549.387 423.626C549.6 423.044 549.706 422.402 549.706 421.701C549.706 421.005 549.6 420.366 549.387 419.784C549.179 419.197 548.857 418.725 548.421 418.37C547.985 418.015 547.436 417.838 546.773 417.838C546.106 417.838 545.552 418.015 545.111 418.37C544.676 418.725 544.351 419.197 544.138 419.784C543.93 420.366 543.826 421.005 543.826 421.701C543.826 422.402 543.93 423.044 544.138 423.626C544.351 424.208 544.676 424.675 545.111 425.025C545.552 425.376 546.106 425.551 546.773 425.551ZM554.222 427.113V416.204H556.274V417.937H556.388C556.587 417.35 556.937 416.888 557.439 416.552C557.946 416.211 558.519 416.041 559.158 416.041C559.29 416.041 559.447 416.046 559.627 416.055C559.811 416.065 559.956 416.076 560.06 416.091V418.122C559.975 418.098 559.823 418.072 559.605 418.044C559.387 418.011 559.17 417.994 558.952 417.994C558.45 417.994 558.003 418.1 557.61 418.314C557.221 418.522 556.914 418.813 556.686 419.187C556.459 419.556 556.345 419.978 556.345 420.451V427.113H554.222Z" fill="black"/>
</g>
<g filter="url(#filter12_d_366_20675)">
<rect x="188.704" y="413.738" width="65.3569" height="65.3569" rx="32.6784" fill="white" shape-rendering="crispEdges"/>
<path d="M221.383 433.75C215.133 433.75 210.049 438.834 210.049 445.083C210.049 451.727 216.221 455.805 220.305 458.502L221.012 458.971C221.124 459.046 221.253 459.083 221.381 459.083C221.509 459.083 221.639 459.046 221.751 458.971L222.457 458.502C226.541 455.805 232.713 451.727 232.713 445.083C232.716 438.834 227.632 433.75 221.383 433.75ZM221.383 448.417C219.541 448.417 218.049 446.925 218.049 445.083C218.049 443.242 219.541 441.75 221.383 441.75C223.224 441.75 224.716 443.242 224.716 445.083C224.716 446.925 223.224 448.417 221.383 448.417Z" fill="#E6723F"/>
</g>
<g filter="url(#filter13_d_366_20675)">
<rect x="151.874" y="495.774" width="139.018" height="40.6784" rx="8.33922" fill="white" shape-rendering="crispEdges"/>
<path d="M166.105 523.113V508.568H171.29C172.417 508.568 173.352 508.762 174.095 509.15C174.843 509.538 175.402 510.076 175.772 510.762C176.141 511.444 176.326 512.233 176.326 513.127C176.326 514.018 176.138 514.801 175.764 515.478C175.395 516.151 174.836 516.674 174.088 517.048C173.345 517.422 172.41 517.609 171.283 517.609H167.355V515.72H171.084C171.794 515.72 172.372 515.618 172.817 515.414C173.267 515.211 173.596 514.915 173.804 514.527C174.013 514.138 174.117 513.672 174.117 513.127C174.117 512.578 174.01 512.102 173.797 511.7C173.589 511.297 173.26 510.99 172.81 510.777C172.365 510.559 171.78 510.45 171.056 510.45H168.3V523.113H166.105ZM173.286 516.551L176.879 523.113H174.379L170.857 516.551H173.286ZM183.39 523.333C182.316 523.333 181.39 523.104 180.614 522.645C179.842 522.181 179.245 521.529 178.824 520.691C178.407 519.849 178.199 518.861 178.199 517.73C178.199 516.612 178.407 515.627 178.824 514.775C179.245 513.923 179.832 513.258 180.585 512.779C181.343 512.301 182.228 512.062 183.241 512.062C183.857 512.062 184.453 512.164 185.031 512.368C185.609 512.571 186.127 512.891 186.587 513.326C187.046 513.762 187.408 514.328 187.673 515.024C187.938 515.715 188.071 516.556 188.071 517.545V518.298H179.399V516.707H185.99C185.99 516.148 185.876 515.654 185.649 515.223C185.422 514.787 185.102 514.444 184.69 514.193C184.283 513.942 183.805 513.816 183.256 513.816C182.659 513.816 182.138 513.963 181.693 514.257C181.253 514.546 180.912 514.924 180.67 515.393C180.434 515.857 180.315 516.361 180.315 516.906V518.149C180.315 518.878 180.443 519.498 180.699 520.01C180.959 520.521 181.321 520.912 181.785 521.181C182.249 521.447 182.792 521.579 183.412 521.579C183.814 521.579 184.181 521.522 184.513 521.409C184.844 521.29 185.131 521.115 185.372 520.883C185.614 520.651 185.798 520.365 185.926 520.024L187.936 520.386C187.775 520.978 187.486 521.496 187.069 521.941C186.658 522.382 186.139 522.725 185.514 522.971C184.894 523.213 184.186 523.333 183.39 523.333ZM195.519 512.204V513.909H189.561V512.204H195.519ZM191.159 509.591H193.282V519.91C193.282 520.322 193.344 520.632 193.467 520.841C193.59 521.044 193.749 521.184 193.943 521.26C194.142 521.331 194.357 521.366 194.589 521.366C194.759 521.366 194.909 521.354 195.036 521.331C195.164 521.307 195.264 521.288 195.335 521.274L195.718 523.028C195.595 523.075 195.42 523.123 195.193 523.17C194.965 523.222 194.681 523.251 194.34 523.255C193.782 523.265 193.261 523.165 192.778 522.957C192.295 522.749 191.904 522.427 191.606 521.991C191.308 521.556 191.159 521.009 191.159 520.35V509.591ZM201.043 523.355C200.352 523.355 199.727 523.227 199.168 522.971C198.609 522.711 198.167 522.334 197.84 521.842C197.518 521.35 197.357 520.746 197.357 520.031C197.357 519.415 197.475 518.909 197.712 518.511C197.949 518.113 198.269 517.798 198.671 517.566C199.073 517.334 199.523 517.159 200.02 517.041C200.518 516.922 201.024 516.833 201.54 516.771C202.194 516.695 202.724 516.634 203.131 516.586C203.538 516.534 203.834 516.451 204.019 516.338C204.204 516.224 204.296 516.039 204.296 515.784V515.734C204.296 515.114 204.121 514.633 203.77 514.292C203.425 513.951 202.909 513.781 202.222 513.781C201.507 513.781 200.944 513.94 200.532 514.257C200.125 514.569 199.843 514.917 199.687 515.301L197.691 514.846C197.928 514.183 198.273 513.648 198.728 513.241C199.187 512.829 199.715 512.531 200.312 512.346C200.908 512.157 201.536 512.062 202.194 512.062C202.629 512.062 203.091 512.114 203.579 512.218C204.071 512.318 204.53 512.502 204.957 512.772C205.387 513.042 205.74 513.428 206.015 513.93C206.289 514.427 206.427 515.074 206.427 515.869V523.113H204.353V521.622H204.268C204.13 521.896 203.924 522.166 203.65 522.431C203.375 522.697 203.022 522.917 202.591 523.092C202.161 523.267 201.645 523.355 201.043 523.355ZM201.505 521.65C202.092 521.65 202.594 521.534 203.011 521.302C203.432 521.07 203.752 520.767 203.969 520.393C204.192 520.014 204.303 519.609 204.303 519.179V517.772C204.227 517.848 204.081 517.919 203.863 517.985C203.65 518.047 203.406 518.101 203.131 518.149C202.857 518.191 202.589 518.232 202.329 518.27C202.068 518.303 201.85 518.331 201.675 518.355C201.263 518.407 200.887 518.494 200.546 518.618C200.21 518.741 199.94 518.918 199.736 519.15C199.538 519.377 199.438 519.681 199.438 520.059C199.438 520.585 199.632 520.983 200.02 521.252C200.409 521.518 200.904 521.65 201.505 521.65ZM209.255 523.113V512.204H211.379V523.113H209.255ZM210.328 510.521C209.958 510.521 209.641 510.398 209.376 510.152C209.116 509.901 208.985 509.602 208.985 509.257C208.985 508.906 209.116 508.608 209.376 508.362C209.641 508.111 209.958 507.985 210.328 507.985C210.697 507.985 211.012 508.111 211.272 508.362C211.537 508.608 211.67 508.906 211.67 509.257C211.67 509.602 211.537 509.901 211.272 510.152C211.012 510.398 210.697 510.521 210.328 510.521ZM216.359 508.568V523.113H214.236V508.568H216.359ZM224.756 507.886L220.068 525.301H218.172L222.86 507.886H224.756ZM226.73 523.113V508.568H235.85V510.457H228.925V514.889H235.374V516.771H228.925V521.224H235.935V523.113H226.73ZM243.206 523.333C242.15 523.333 241.241 523.094 240.479 522.616C239.721 522.133 239.139 521.468 238.731 520.62C238.324 519.773 238.121 518.802 238.121 517.708C238.121 516.6 238.329 515.623 238.746 514.775C239.162 513.923 239.749 513.258 240.507 512.779C241.265 512.301 242.157 512.062 243.185 512.062C244.013 512.062 244.752 512.216 245.4 512.524C246.049 512.827 246.572 513.253 246.97 513.802C247.372 514.351 247.612 514.993 247.687 515.727H245.621C245.507 515.216 245.247 514.775 244.839 514.406C244.437 514.037 243.897 513.852 243.22 513.852C242.628 513.852 242.11 514.008 241.665 514.321C241.224 514.628 240.881 515.069 240.635 515.642C240.389 516.21 240.265 516.882 240.265 517.659C240.265 518.454 240.386 519.141 240.628 519.718C240.869 520.296 241.21 520.743 241.65 521.061C242.096 521.378 242.619 521.537 243.22 521.537C243.622 521.537 243.987 521.463 244.314 521.316C244.645 521.165 244.922 520.949 245.145 520.67C245.372 520.391 245.531 520.055 245.621 519.662H247.687C247.612 520.367 247.382 520.997 246.998 521.551C246.615 522.105 246.101 522.54 245.457 522.858C244.818 523.175 244.068 523.333 243.206 523.333ZM254.553 523.333C253.531 523.333 252.638 523.099 251.876 522.63C251.114 522.162 250.522 521.506 250.1 520.663C249.679 519.82 249.468 518.835 249.468 517.708C249.468 516.577 249.679 515.587 250.1 514.74C250.522 513.892 251.114 513.234 251.876 512.765C252.638 512.297 253.531 512.062 254.553 512.062C255.576 512.062 256.469 512.297 257.231 512.765C257.993 513.234 258.585 513.892 259.007 514.74C259.428 515.587 259.639 516.577 259.639 517.708C259.639 518.835 259.428 519.82 259.007 520.663C258.585 521.506 257.993 522.162 257.231 522.63C256.469 523.099 255.576 523.333 254.553 523.333ZM254.561 521.551C255.223 521.551 255.773 521.376 256.208 521.025C256.644 520.675 256.966 520.208 257.174 519.626C257.387 519.044 257.494 518.402 257.494 517.701C257.494 517.005 257.387 516.366 257.174 515.784C256.966 515.197 256.644 514.725 256.208 514.37C255.773 514.015 255.223 513.838 254.561 513.838C253.893 513.838 253.339 514.015 252.899 514.37C252.463 514.725 252.139 515.197 251.926 515.784C251.717 516.366 251.613 517.005 251.613 517.701C251.613 518.402 251.717 519.044 251.926 519.626C252.139 520.208 252.463 520.675 252.899 521.025C253.339 521.376 253.893 521.551 254.561 521.551ZM262.009 523.113V512.204H264.047V513.98H264.182C264.41 513.378 264.781 512.91 265.297 512.574C265.814 512.233 266.431 512.062 267.151 512.062C267.88 512.062 268.491 512.233 268.984 512.574C269.481 512.914 269.848 513.383 270.084 513.98H270.198C270.458 513.397 270.873 512.933 271.441 512.588C272.009 512.237 272.686 512.062 273.472 512.062C274.462 512.062 275.269 512.372 275.894 512.993C276.524 513.613 276.839 514.548 276.839 515.798V523.113H274.715V515.997C274.715 515.258 274.514 514.723 274.111 514.392C273.709 514.06 273.228 513.895 272.67 513.895C271.978 513.895 271.441 514.108 271.057 514.534C270.674 514.955 270.482 515.497 270.482 516.16V523.113H268.366V515.862C268.366 515.27 268.181 514.794 267.812 514.434C267.442 514.074 266.962 513.895 266.37 513.895C265.967 513.895 265.596 514.001 265.255 514.214C264.919 514.422 264.646 514.714 264.438 515.088C264.234 515.462 264.133 515.895 264.133 516.387V523.113H262.009Z" fill="black"/>
</g>
<defs>
<filter id="filter0_d_366_20675" x="113.492" y="70.0598" width="115.392" height="115.392" filterUnits="userSpaceOnUse" color-interpolation-filters="sRGB">
<feFlood flood-opacity="0" result="BackgroundImageFix"/>
<feColorMatrix in="SourceAlpha" type="matrix" values="0 0 0 0 0 0 0 0 0 0 0 0 0 0 0 0 0 0 127 0" result="hardAlpha"/>
<feOffset dx="8.33922" dy="8.33922"/>
<feGaussianBlur stdDeviation="12.5088"/>
<feComposite in2="hardAlpha" operator="out"/>
<feColorMatrix type="matrix" values="0 0 0 0 0 0 0 0 0 0 0 0 0 0 0 0 0 0 0.08 0"/>
<feBlend mode="normal" in2="BackgroundImageFix" result="effect1_dropShadow_366_20675"/>
<feBlend mode="normal" in="SourceGraphic" in2="effect1_dropShadow_366_20675" result="shape"/>
</filter>
<filter id="filter1_d_366_20675" x="79.6614" y="152.095" width="183.053" height="90.7136" filterUnits="userSpaceOnUse" color-interpolation-filters="sRGB">
<feFlood flood-opacity="0" result="BackgroundImageFix"/>
<feColorMatrix in="SourceAlpha" type="matrix" values="0 0 0 0 0 0 0 0 0 0 0 0 0 0 0 0 0 0 127 0" result="hardAlpha"/>
<feOffset dx="8.33922" dy="8.33922"/>
<feGaussianBlur stdDeviation="12.5088"/>
<feComposite in2="hardAlpha" operator="out"/>
<feColorMatrix type="matrix" values="0 0 0 0 0 0 0 0 0 0 0 0 0 0 0 0 0 0 0.08 0"/>
<feBlend mode="normal" in2="BackgroundImageFix" result="effect1_dropShadow_366_20675"/>
<feBlend mode="normal" in="SourceGraphic" in2="effect1_dropShadow_366_20675" result="shape"/>
</filter>
<filter id="filter2_d_366_20675" x="294.651" y="0.96462" width="115.392" height="115.392" filterUnits="userSpaceOnUse" color-interpolation-filters="sRGB">
<feFlood flood-opacity="0" result="BackgroundImageFix"/>
<feColorMatrix in="SourceAlpha" type="matrix" values="0 0 0 0 0 0 0 0 0 0 0 0 0 0 0 0 0 0 127 0" result="hardAlpha"/>
<feOffset dx="8.33922" dy="8.33922"/>
<feGaussianBlur stdDeviation="12.5088"/>
<feComposite in2="hardAlpha" operator="out"/>
<feColorMatrix type="matrix" values="0 0 0 0 0 0 0 0 0 0 0 0 0 0 0 0 0 0 0.08 0"/>
<feBlend mode="normal" in2="BackgroundImageFix" result="effect1_dropShadow_366_20675"/>
<feBlend mode="normal" in="SourceGraphic" in2="effect1_dropShadow_366_20675" result="shape"/>
</filter>
<filter id="filter3_d_366_20675" x="253.321" y="82.9998" width="198.053" height="90.7136" filterUnits="userSpaceOnUse" color-interpolation-filters="sRGB">
<feFlood flood-opacity="0" result="BackgroundImageFix"/>
<feColorMatrix in="SourceAlpha" type="matrix" values="0 0 0 0 0 0 0 0 0 0 0 0 0 0 0 0 0 0 127 0" result="hardAlpha"/>
<feOffset dx="8.33922" dy="8.33922"/>
<feGaussianBlur stdDeviation="12.5088"/>
<feComposite in2="hardAlpha" operator="out"/>
<feColorMatrix type="matrix" values="0 0 0 0 0 0 0 0 0 0 0 0 0 0 0 0 0 0 0.08 0"/>
<feBlend mode="normal" in2="BackgroundImageFix" result="effect1_dropShadow_366_20675"/>
<feBlend mode="normal" in="SourceGraphic" in2="effect1_dropShadow_366_20675" result="shape"/>
</filter>
<filter id="filter4_d_366_20675" x="383.651" y="484.965" width="115.392" height="115.392" filterUnits="userSpaceOnUse" color-interpolation-filters="sRGB">
<feFlood flood-opacity="0" result="BackgroundImageFix"/>
<feColorMatrix in="SourceAlpha" type="matrix" values="0 0 0 0 0 0 0 0 0 0 0 0 0 0 0 0 0 0 127 0" result="hardAlpha"/>
<feOffset dx="8.33922" dy="8.33922"/>
<feGaussianBlur stdDeviation="12.5088"/>
<feComposite in2="hardAlpha" operator="out"/>
<feColorMatrix type="matrix" values="0 0 0 0 0 0 0 0 0 0 0 0 0 0 0 0 0 0 0.08 0"/>
<feBlend mode="normal" in2="BackgroundImageFix" result="effect1_dropShadow_366_20675"/>
<feBlend mode="normal" in="SourceGraphic" in2="effect1_dropShadow_366_20675" result="shape"/>
</filter>
<filter id="filter5_d_366_20675" x="355.321" y="567" width="172.053" height="90.7136" filterUnits="userSpaceOnUse" color-interpolation-filters="sRGB">
<feFlood flood-opacity="0" result="BackgroundImageFix"/>
<feColorMatrix in="SourceAlpha" type="matrix" values="0 0 0 0 0 0 0 0 0 0 0 0 0 0 0 0 0 0 127 0" result="hardAlpha"/>
<feOffset dx="8.33922" dy="8.33922"/>
<feGaussianBlur stdDeviation="12.5088"/>
<feComposite in2="hardAlpha" operator="out"/>
<feColorMatrix type="matrix" values="0 0 0 0 0 0 0 0 0 0 0 0 0 0 0 0 0 0 0.08 0"/>
<feBlend mode="normal" in2="BackgroundImageFix" result="effect1_dropShadow_366_20675"/>
<feBlend mode="normal" in="SourceGraphic" in2="effect1_dropShadow_366_20675" result="shape"/>
</filter>
<filter id="filter6_d_366_20675" x="27.6431" y="277.965" width="115.392" height="115.392" filterUnits="userSpaceOnUse" color-interpolation-filters="sRGB">
<feFlood flood-opacity="0" result="BackgroundImageFix"/>
<feColorMatrix in="SourceAlpha" type="matrix" values="0 0 0 0 0 0 0 0 0 0 0 0 0 0 0 0 0 0 127 0" result="hardAlpha"/>
<feOffset dx="8.33922" dy="8.33922"/>
<feGaussianBlur stdDeviation="12.5088"/>
<feComposite in2="hardAlpha" operator="out"/>
<feColorMatrix type="matrix" values="0 0 0 0 0 0 0 0 0 0 0 0 0 0 0 0 0 0 0.08 0"/>
<feBlend mode="normal" in2="BackgroundImageFix" result="effect1_dropShadow_366_20675"/>
<feBlend mode="normal" in="SourceGraphic" in2="effect1_dropShadow_366_20675" result="shape"/>
</filter>
<filter id="filter7_d_366_20675" x="0.812764" y="360" width="169.053" height="90.7136" filterUnits="userSpaceOnUse" color-interpolation-filters="sRGB">
<feFlood flood-opacity="0" result="BackgroundImageFix"/>
<feColorMatrix in="SourceAlpha" type="matrix" values="0 0 0 0 0 0 0 0 0 0 0 0 0 0 0 0 0 0 127 0" result="hardAlpha"/>
<feOffset dx="8.33922" dy="8.33922"/>
<feGaussianBlur stdDeviation="12.5088"/>
<feComposite in2="hardAlpha" operator="out"/>
<feColorMatrix type="matrix" values="0 0 0 0 0 0 0 0 0 0 0 0 0 0 0 0 0 0 0.08 0"/>
<feBlend mode="normal" in2="BackgroundImageFix" result="effect1_dropShadow_366_20675"/>
<feBlend mode="normal" in="SourceGraphic" in2="effect1_dropShadow_366_20675" result="shape"/>
</filter>
<filter id="filter8_d_366_20675" x="489.651" y="92.9646" width="115.392" height="115.392" filterUnits="userSpaceOnUse" color-interpolation-filters="sRGB">
<feFlood flood-opacity="0" result="BackgroundImageFix"/>
<feColorMatrix in="SourceAlpha" type="matrix" values="0 0 0 0 0 0 0 0 0 0 0 0 0 0 0 0 0 0 127 0" result="hardAlpha"/>
<feOffset dx="8.33922" dy="8.33922"/>
<feGaussianBlur stdDeviation="12.5088"/>
<feComposite in2="hardAlpha" operator="out"/>
<feColorMatrix type="matrix" values="0 0 0 0 0 0 0 0 0 0 0 0 0 0 0 0 0 0 0.08 0"/>
<feBlend mode="normal" in2="BackgroundImageFix" result="effect1_dropShadow_366_20675"/>
<feBlend mode="normal" in="SourceGraphic" in2="effect1_dropShadow_366_20675" result="shape"/>
</filter>
<filter id="filter9_d_366_20675" x="483.821" y="175" width="127.053" height="90.7136" filterUnits="userSpaceOnUse" color-interpolation-filters="sRGB">
<feFlood flood-opacity="0" result="BackgroundImageFix"/>
<feColorMatrix in="SourceAlpha" type="matrix" values="0 0 0 0 0 0 0 0 0 0 0 0 0 0 0 0 0 0 127 0" result="hardAlpha"/>
<feOffset dx="8.33922" dy="8.33922"/>
<feGaussianBlur stdDeviation="12.5088"/>
<feComposite in2="hardAlpha" operator="out"/>
<feColorMatrix type="matrix" values="0 0 0 0 0 0 0 0 0 0 0 0 0 0 0 0 0 0 0.08 0"/>
<feBlend mode="normal" in2="BackgroundImageFix" result="effect1_dropShadow_366_20675"/>
<feBlend mode="normal" in="SourceGraphic" in2="effect1_dropShadow_366_20675" result="shape"/>
</filter>
<filter id="filter10_d_366_20675" x="460.264" y="301.06" width="115.392" height="115.392" filterUnits="userSpaceOnUse" color-interpolation-filters="sRGB">
<feFlood flood-opacity="0" result="BackgroundImageFix"/>
<feColorMatrix in="SourceAlpha" type="matrix" values="0 0 0 0 0 0 0 0 0 0 0 0 0 0 0 0 0 0 127 0" result="hardAlpha"/>
<feOffset dx="8.33922" dy="8.33922"/>
<feGaussianBlur stdDeviation="12.5088"/>
<feComposite in2="hardAlpha" operator="out"/>
<feColorMatrix type="matrix" values="0 0 0 0 0 0 0 0 0 0 0 0 0 0 0 0 0 0 0.08 0"/>
<feBlend mode="normal" in2="BackgroundImageFix" result="effect1_dropShadow_366_20675"/>
<feBlend mode="normal" in="SourceGraphic" in2="effect1_dropShadow_366_20675" result="shape"/>
</filter>
<filter id="filter11_d_366_20675" x="429.433" y="383.095" width="177.053" height="90.7136" filterUnits="userSpaceOnUse" color-interpolation-filters="sRGB">
<feFlood flood-opacity="0" result="BackgroundImageFix"/>
<feColorMatrix in="SourceAlpha" type="matrix" values="0 0 0 0 0 0 0 0 0 0 0 0 0 0 0 0 0 0 127 0" result="hardAlpha"/>
<feOffset dx="8.33922" dy="8.33922"/>
<feGaussianBlur stdDeviation="12.5088"/>
<feComposite in2="hardAlpha" operator="out"/>
<feColorMatrix type="matrix" values="0 0 0 0 0 0 0 0 0 0 0 0 0 0 0 0 0 0 0.08 0"/>
<feBlend mode="normal" in2="BackgroundImageFix" result="effect1_dropShadow_366_20675"/>
<feBlend mode="normal" in="SourceGraphic" in2="effect1_dropShadow_366_20675" result="shape"/>
</filter>
<filter id="filter12_d_366_20675" x="172.025" y="397.06" width="115.392" height="115.392" filterUnits="userSpaceOnUse" color-interpolation-filters="sRGB">
<feFlood flood-opacity="0" result="BackgroundImageFix"/>
<feColorMatrix in="SourceAlpha" type="matrix" values="0 0 0 0 0 0 0 0 0 0 0 0 0 0 0 0 0 0 127 0" result="hardAlpha"/>
<feOffset dx="8.33922" dy="8.33922"/>
<feGaussianBlur stdDeviation="12.5088"/>
<feComposite in2="hardAlpha" operator="out"/>
<feColorMatrix type="matrix" values="0 0 0 0 0 0 0 0 0 0 0 0 0 0 0 0 0 0 0.08 0"/>
<feBlend mode="normal" in2="BackgroundImageFix" result="effect1_dropShadow_366_20675"/>
<feBlend mode="normal" in="SourceGraphic" in2="effect1_dropShadow_366_20675" result="shape"/>
</filter>
<filter id="filter13_d_366_20675" x="135.195" y="479.095" width="189.053" height="90.7136" filterUnits="userSpaceOnUse" color-interpolation-filters="sRGB">
<feFlood flood-opacity="0" result="BackgroundImageFix"/>
<feColorMatrix in="SourceAlpha" type="matrix" values="0 0 0 0 0 0 0 0 0 0 0 0 0 0 0 0 0 0 127 0" result="hardAlpha"/>
<feOffset dx="8.33922" dy="8.33922"/>
<feGaussianBlur stdDeviation="12.5088"/>
<feComposite in2="hardAlpha" operator="out"/>
<feColorMatrix type="matrix" values="0 0 0 0 0 0 0 0 0 0 0 0 0 0 0 0 0 0 0.08 0"/>
<feBlend mode="normal" in2="BackgroundImageFix" result="effect1_dropShadow_366_20675"/>
<feBlend mode="normal" in="SourceGraphic" in2="effect1_dropShadow_366_20675" result="shape"/>
</filter>
</defs>
</svg>
