<svg width="356" height="357" viewBox="0 0 356 357" fill="none" xmlns="http://www.w3.org/2000/svg">
<g filter="url(#filter0_d_366_20602)">
<rect x="33.7798" y="34.106" width="222.032" height="222.032" rx="111.016" fill="white" shape-rendering="crispEdges"/>
<g clip-path="url(#clip0_366_20602)">
<path d="M210.48 161.485C209.818 162.101 209.05 162.592 208.213 162.935C207.296 163.36 206.299 163.584 205.289 163.594C204.218 163.628 203.156 163.39 202.201 162.902C201.379 162.45 200.766 161.693 200.494 160.793C200.183 159.825 200.025 158.813 200.027 157.796V144.432H206.264C208.54 143.263 210.462 141.056 211.651 138.353H200.037V130.077C198.848 129.834 197.635 129.723 196.422 129.745C195.17 129.729 193.92 129.84 192.69 130.077V138.372H187.359C187.174 139.349 187.087 140.342 187.098 141.337C187.084 142.374 187.171 143.411 187.359 144.432H192.681V159.507C192.681 163.067 193.731 165.717 195.83 167.456C197.929 169.196 200.754 170.064 204.305 170.061C206.116 170.082 207.913 169.745 209.594 169.07C211.055 168.495 212.418 167.695 213.633 166.699C213.469 165.645 213.088 164.637 212.514 163.739C212.014 162.844 211.319 162.073 210.48 161.485Z" fill="#A53D96"/>
<path d="M210.477 161.485C209.815 162.101 209.047 162.592 208.21 162.934C207.293 163.359 206.296 163.584 205.286 163.594C204.215 163.628 203.152 163.39 202.198 162.902C201.376 162.449 200.763 161.692 200.491 160.793C200.18 159.824 200.022 158.813 200.024 157.796V153.307C199.076 151.145 197.807 149.14 196.26 147.359C193.709 144.418 190.364 142.351 187.09 140.878C187.09 141.028 187.09 141.182 187.09 141.346C187.076 142.383 187.163 143.42 187.351 144.441H192.678V159.507C192.678 163.067 193.727 165.717 195.826 167.456C197.925 169.196 200.75 170.064 204.302 170.061C206.112 170.082 207.91 169.745 209.591 169.069C211.052 168.494 212.415 167.694 213.63 166.699C213.466 165.645 213.085 164.637 212.511 163.739C212.011 162.843 211.316 162.073 210.477 161.485Z" fill="url(#paint0_linear_366_20602)"/>
<path d="M57.2408 131.855C56.7845 131.423 56.4209 130.902 56.1723 130.325C55.9238 129.747 55.7957 129.124 55.7957 128.495C55.7957 127.866 55.9238 127.244 56.1723 126.666C56.4209 126.088 56.7845 125.567 57.2408 125.136C57.6917 124.691 58.2259 124.34 58.8127 124.103C59.3995 123.866 60.0273 123.748 60.6598 123.756C61.9142 123.756 63.1172 124.256 64.0041 125.145C64.8911 126.034 65.3894 127.24 65.3894 128.498C65.3894 129.755 64.8911 130.961 64.0041 131.85C63.1172 132.74 61.9142 133.239 60.6598 133.239C60.027 133.246 59.3991 133.127 58.8123 132.89C58.2255 132.652 57.6914 132.3 57.2408 131.855Z" fill="#A53D96"/>
<path d="M56.9167 169.14V137.998C58.1462 137.762 59.3964 137.65 60.6482 137.666C61.8818 137.643 63.1142 137.754 64.3237 137.998V169.14C63.1142 169.384 61.8818 169.496 60.6482 169.472C59.3964 169.488 58.1462 169.377 56.9167 169.14Z" fill="#A53D96"/>
<path d="M113.536 138.438C115.57 139.408 117.276 140.954 118.443 142.885C119.61 144.816 120.187 147.048 120.103 149.305V169.14C118.892 169.384 117.658 169.495 116.423 169.472C115.171 169.493 113.92 169.381 112.691 169.14V151.544C112.691 149.216 112.11 147.345 110.947 145.933C109.784 144.521 108.016 143.823 105.644 143.838C103.196 143.87 100.841 144.781 99.0062 146.406C99.2196 147.357 99.3306 148.329 99.3374 149.305V169.14C98.1263 169.384 96.8924 169.495 95.6573 169.472C94.3791 169.49 93.1024 169.379 91.8465 169.14V151.544C91.8465 149.216 91.2775 147.345 90.1394 145.933C89.0013 144.521 87.2506 143.82 84.8873 143.829C83.7308 143.838 82.5808 144.003 81.4684 144.32C80.4337 144.591 79.4404 145.002 78.5159 145.541V169.14C77.2876 169.385 76.0365 169.496 74.7844 169.472C73.5496 169.487 72.3166 169.375 71.1042 169.14V141.926C72.5502 140.701 74.6196 139.571 77.3125 138.536C80.0082 137.506 82.8699 136.981 85.7549 136.988C90.0461 136.988 93.4401 138.196 95.9371 140.612C97.4021 139.5 99.0308 138.623 100.765 138.012C102.605 137.333 104.55 136.986 106.511 136.988C108.932 136.929 111.335 137.424 113.536 138.438Z" fill="#A53D96"/>
<path d="M129.897 146.275C131.209 145.307 132.689 144.592 134.262 144.166C135.66 143.756 137.107 143.534 138.563 143.506C140.976 143.506 142.826 144.033 144.113 145.087C144.757 145.62 145.268 146.297 145.605 147.064C145.942 147.83 146.096 148.665 146.054 149.501V149.73C148.652 150.817 151.102 152.231 153.344 153.939V149.969C153.382 147.983 153.022 146.01 152.285 144.166C151.65 142.591 150.634 141.199 149.328 140.116C147.988 139.049 146.445 138.265 144.794 137.811C142.935 137.291 141.011 137.036 139.081 137.054C136.518 137.028 133.975 137.505 131.594 138.456C129.272 139.392 127.561 140.391 126.464 141.454C126.631 142.482 127.025 143.459 127.616 144.315C128.186 145.162 128.974 145.839 129.897 146.275Z" fill="url(#paint1_linear_366_20602)"/>
<path d="M181.481 153.518C179.709 151.938 176.699 150.819 172.451 150.161C169.867 149.762 168.104 149.268 167.162 148.679C166.734 148.441 166.379 148.093 166.133 147.67C165.886 147.247 165.758 146.765 165.762 146.275C165.756 145.789 165.883 145.311 166.13 144.893C166.377 144.475 166.734 144.133 167.162 143.905C168.095 143.334 169.494 143.049 171.397 143.049C174.597 143.015 177.748 143.833 180.53 145.42C182.06 144.191 183 142.413 183.352 140.084C181.887 139.102 180.265 138.378 178.557 137.943C176.311 137.327 173.991 137.028 171.663 137.054C167.763 137.054 164.61 137.955 162.204 139.757C161.069 140.542 160.145 141.596 159.514 142.825C158.883 144.055 158.565 145.421 158.589 146.804C158.589 149.435 159.453 151.53 161.182 153.088C162.911 154.647 165.638 155.711 169.363 156.282C172.031 156.681 173.925 157.208 175.045 157.862C176.164 158.517 176.722 159.374 176.719 160.434C176.73 160.975 176.602 161.51 176.349 161.988C176.096 162.465 175.726 162.871 175.273 163.165C175.157 163.245 175.038 163.318 174.914 163.385C174.791 163.449 174.665 163.507 174.536 163.558C174.267 163.674 173.99 163.77 173.706 163.843C172.265 164.254 169.587 164.638 165.972 163.534H165.907C165.417 163.397 164.937 163.227 164.47 163.025L163.92 162.791C161.838 161.794 159.901 160.52 158.16 159.003C156.62 157.685 155.24 156.586 154.013 155.66L153.346 155.113C150.935 153.196 148.265 151.632 145.417 150.465C138.887 147.94 133.364 149.301 130.183 151.508C128.529 152.466 127.18 153.875 126.293 155.571L126.195 155.767C126.167 155.833 126.134 155.898 126.102 155.959L126.041 156.099C125.678 156.888 125.441 157.729 125.337 158.592C125.269 159.039 125.233 159.491 125.229 159.943C125.229 163.104 126.389 165.584 128.709 167.383C131.029 169.181 134.449 170.082 138.971 170.085C141.545 170.076 144.111 169.79 146.625 169.23C148.949 168.752 151.208 168 153.355 166.99V163.576L152.073 162.515C150.166 160.852 148.153 159.317 146.046 157.918V163.38C143.964 164.037 141.793 164.371 139.61 164.371C137.417 164.371 135.73 163.943 134.549 163.085C134.002 162.7 133.552 162.192 133.233 161.603C132.716 160.293 132.737 158.831 133.289 157.535C134.376 154.879 140.043 153.168 145.986 156.787L146.046 156.824L146.303 156.969C148.588 158.372 150.65 160.154 152.646 161.804L153.337 162.375C158.136 166.316 163.3 170.085 172.26 170.099C175.727 169.878 178.496 168.961 180.567 167.35C182.952 165.479 184.145 162.923 184.145 159.681C184.18 158.521 183.96 157.367 183.499 156.302C183.039 155.236 182.35 154.286 181.481 153.518Z" fill="url(#paint2_linear_366_20602)"/>
<path d="M56.9167 154.985V169.14C58.1462 169.376 59.3964 169.487 60.6482 169.472C61.8818 169.495 63.1142 169.384 64.3237 169.14V160.756C61.5885 159.203 59.0934 157.259 56.9167 154.985ZM71.101 163.355V169.14C72.3133 169.375 73.5463 169.486 74.7811 169.472C76.0332 169.496 77.2843 169.385 78.5126 169.14V163.809C77.7196 163.884 76.95 163.926 76.2131 163.926C74.4933 163.925 72.7789 163.733 71.101 163.355ZM91.8572 169.14C93.1131 169.379 94.3898 169.49 95.668 169.472C96.9031 169.495 98.137 169.384 99.3481 169.14V157.015C96.8527 158.193 94.3386 159.292 91.8572 160.255V169.14ZM119.666 145.76C117.586 147.06 115.188 148.514 112.585 150.02C112.65 150.524 112.682 151.031 112.683 151.539V169.14C113.912 169.381 115.163 169.492 116.415 169.472C117.653 169.496 118.89 169.384 120.104 169.14V149.304C120.112 148.109 119.965 146.917 119.666 145.76Z" fill="url(#paint3_linear_366_20602)"/>
<path d="M232.553 146.032C232.905 145.311 233.19 144.56 233.407 143.787C233.56 143.103 233.668 142.409 233.729 141.711L232.082 140.341L228.78 139.373C229.498 142.075 229.812 144.869 229.713 147.664C229.692 148.988 229.573 150.308 229.358 151.615C229.364 151.649 229.381 151.681 229.408 151.704C229.434 151.727 229.468 151.74 229.503 151.741C229.53 151.74 229.555 151.732 229.578 151.718C230.827 150.004 231.812 148.113 232.502 146.106L232.553 146.032Z" fill="#A53D96"/>
<path d="M233.645 138.438C232.969 132.691 226.252 128.244 226.252 128.244C219.652 123.372 210.347 120.842 207.371 120.122C207.331 120.124 207.294 120.142 207.266 120.17C207.239 120.199 207.223 120.237 207.221 120.276C207.221 120.308 207.231 120.34 207.249 120.365C214.862 124.672 216.839 129.062 217.343 131.321V131.386C217.361 131.456 217.375 131.526 217.385 131.597C217.499 132.121 217.56 132.655 217.567 133.191C217.567 133.383 217.567 133.575 217.567 133.762C217.66 138.817 213.369 143.348 211.797 144.839C211.775 144.871 211.766 144.909 211.771 144.947C211.777 144.986 211.796 145.02 211.825 145.045C211.846 145.06 211.87 145.069 211.895 145.073C214.951 143.769 218.101 142.697 221.317 141.865C224.75 140.93 228.22 140.327 230.151 140.958C233.034 141.767 232.866 144.512 232.483 146.144C232.878 145.342 233.191 144.502 233.416 143.637C233.819 141.934 233.897 140.17 233.645 138.438Z" fill="url(#paint4_linear_366_20602)"/>
</g>
</g>
<defs>
<filter id="filter0_d_366_20602" x="0.422894" y="0.749065" width="355.459" height="355.459" filterUnits="userSpaceOnUse" color-interpolation-filters="sRGB">
<feFlood flood-opacity="0" result="BackgroundImageFix"/>
<feColorMatrix in="SourceAlpha" type="matrix" values="0 0 0 0 0 0 0 0 0 0 0 0 0 0 0 0 0 0 127 0" result="hardAlpha"/>
<feOffset dx="33.3569" dy="33.3569"/>
<feGaussianBlur stdDeviation="33.3569"/>
<feComposite in2="hardAlpha" operator="out"/>
<feColorMatrix type="matrix" values="0 0 0 0 0 0 0 0 0 0 0 0 0 0 0 0 0 0 0.08 0"/>
<feBlend mode="normal" in2="BackgroundImageFix" result="effect1_dropShadow_366_20602"/>
<feBlend mode="normal" in="SourceGraphic" in2="effect1_dropShadow_366_20602" result="shape"/>
</filter>
<linearGradient id="paint0_linear_366_20602" x1="213.63" y1="155.462" x2="187.095" y2="155.462" gradientUnits="userSpaceOnUse">
<stop stop-color="#A22C91"/>
<stop offset="0.1" stop-color="#BF2E68"/>
<stop offset="0.2" stop-color="#D83043"/>
<stop offset="0.29" stop-color="#E8312C"/>
<stop offset="0.34" stop-color="#EE3124"/>
<stop offset="0.46" stop-color="#F04627"/>
<stop offset="0.72" stop-color="#F77D30"/>
<stop offset="1" stop-color="#FEBF3B"/>
</linearGradient>
<linearGradient id="paint1_linear_366_20602" x1="126.468" y1="145.508" x2="153.335" y2="145.508" gradientUnits="userSpaceOnUse">
<stop offset="0.06" stop-color="#A22C91"/>
<stop offset="0.24" stop-color="#BF2E68"/>
<stop offset="0.42" stop-color="#D83043"/>
<stop offset="0.57" stop-color="#E8312C"/>
<stop offset="0.67" stop-color="#EE3124"/>
<stop offset="0.73" stop-color="#F04627"/>
<stop offset="0.86" stop-color="#F77D30"/>
<stop offset="1" stop-color="#FEBF3B"/>
</linearGradient>
<linearGradient id="paint2_linear_366_20602" x1="125.225" y1="153.588" x2="184.14" y2="153.588" gradientUnits="userSpaceOnUse">
<stop offset="0.06" stop-color="#A22C91"/>
<stop offset="0.24" stop-color="#BF2E68"/>
<stop offset="0.42" stop-color="#D83043"/>
<stop offset="0.57" stop-color="#E8312C"/>
<stop offset="0.67" stop-color="#EE3124"/>
<stop offset="0.73" stop-color="#F04627"/>
<stop offset="0.86" stop-color="#F77D30"/>
<stop offset="1" stop-color="#FEBF3B"/>
</linearGradient>
<linearGradient id="paint3_linear_366_20602" x1="120.104" y1="157.609" x2="56.9167" y2="157.609" gradientUnits="userSpaceOnUse">
<stop stop-color="#BD2790"/>
<stop offset="0.25" stop-color="#CF2B68"/>
<stop offset="0.51" stop-color="#E02E43"/>
<stop offset="0.73" stop-color="#EA302C"/>
<stop offset="0.86" stop-color="#EE3124"/>
<stop offset="0.89" stop-color="#F04627"/>
<stop offset="0.94" stop-color="#F77D30"/>
<stop offset="1" stop-color="#FEBF3B"/>
</linearGradient>
<linearGradient id="paint4_linear_366_20602" x1="227.399" y1="149.094" x2="209.801" y2="118.696" gradientUnits="userSpaceOnUse">
<stop stop-color="#FFE438"/>
<stop offset="0.02" stop-color="#FDCE37"/>
<stop offset="0.05" stop-color="#FCBD36"/>
<stop offset="0.08" stop-color="#FBB235"/>
<stop offset="0.12" stop-color="#FAAB35"/>
<stop offset="0.24" stop-color="#FAA935"/>
<stop offset="0.28" stop-color="#F68130"/>
<stop offset="0.34" stop-color="#F35D2C"/>
<stop offset="0.39" stop-color="#F04128"/>
<stop offset="0.45" stop-color="#EE2C26"/>
<stop offset="0.5" stop-color="#ED2024"/>
<stop offset="0.55" stop-color="#ED1C24"/>
<stop offset="0.74" stop-color="#BF2666"/>
<stop offset="0.87" stop-color="#A22C91"/>
</linearGradient>
<clipPath id="clip0_366_20602">
<rect width="178" height="50" fill="white" transform="translate(55.7957 120.122)"/>
</clipPath>
</defs>
</svg>
